<svg xmlns="http://www.w3.org/2000/svg" width="329" height="291" fill="none"><rect width="329" height="291" fill="#F7D3CF" rx="38"/><path fill="#141414" d="M47.01 200.62c0 .453.2.813.6 1.08.4.267.887.473 1.46.62a27.85 27.85 0 0 1 1.72.5 3.25 3.25 0 0 1 1.46.9c.4.413.6.96.6 1.64 0 .853-.34 1.547-1.02 2.08-.666.533-1.533.8-2.6.8-.96 0-1.78-.213-2.46-.64-.666-.427-1.133-.98-1.4-1.66l1.12-.66c.187.52.52.933 1 1.24.494.293 1.074.44 1.74.44.654 0 1.2-.127 1.64-.38.44-.267.66-.673.66-1.22 0-.453-.2-.813-.6-1.08-.4-.267-.886-.473-1.46-.62a42.448 42.448 0 0 1-1.72-.48 3.513 3.513 0 0 1-1.46-.9c-.4-.427-.6-.98-.6-1.66 0-.813.32-1.493.96-2.04.654-.547 1.474-.82 2.46-.82.814 0 1.527.187 2.14.56.614.36 1.067.853 1.36 1.48l-1.1.64c-.386-.933-1.186-1.4-2.4-1.4-.573 0-1.066.14-1.48.42-.413.267-.62.653-.62 1.16Zm12.37-2.86c1.48 0 2.673.527 3.58 1.58.92 1.04 1.38 2.273 1.38 3.7 0 .147-.014.353-.04.62h-8.78c.133 1.013.56 1.82 1.28 2.42.733.587 1.633.88 2.7.88.76 0 1.413-.153 1.96-.46.56-.32.98-.733 1.26-1.24l1.16.68a4.745 4.745 0 0 1-1.8 1.68c-.76.413-1.627.62-2.6.62-1.574 0-2.854-.493-3.84-1.48-.987-.987-1.48-2.24-1.48-3.76 0-1.493.486-2.74 1.46-3.74.973-1 2.226-1.5 3.76-1.5Zm0 1.28c-1.04 0-1.914.313-2.62.94-.694.613-1.107 1.413-1.24 2.4h7.46c-.134-1.053-.54-1.873-1.22-2.46a3.53 3.53 0 0 0-2.38-.88Zm7.06 8.96v-14.6h1.32V208h-1.32Zm4.12 0v-14.6h1.32V208h-1.32Zm19.781-10.24c1.12 0 2.02.36 2.7 1.08.694.72 1.04 1.693 1.04 2.92V208h-1.32v-6.24c0-.867-.226-1.533-.68-2-.44-.48-1.026-.72-1.76-.72-.826 0-1.5.28-2.02.84-.506.547-.76 1.407-.76 2.58V208h-1.32v-6.24c0-.88-.213-1.553-.64-2.02-.413-.467-.98-.7-1.7-.7-.8 0-1.48.28-2.04.84-.56.56-.84 1.42-.84 2.58V208h-1.32v-10h1.32v1.46c.72-1.133 1.74-1.7 3.06-1.7 1.44 0 2.454.607 3.04 1.82.72-1.213 1.8-1.82 3.24-1.82Zm14.673 8.98c-1.013 1-2.253 1.5-3.72 1.5-1.466 0-2.713-.5-3.74-1.5-1.013-1.013-1.52-2.26-1.52-3.74 0-1.48.507-2.72 1.52-3.72 1.027-1.013 2.274-1.52 3.74-1.52 1.467 0 2.707.507 3.72 1.52 1.027 1 1.54 2.24 1.54 3.72s-.513 2.727-1.54 3.74Zm-6.52-.92c.76.76 1.694 1.14 2.8 1.14 1.107 0 2.04-.38 2.8-1.14.76-.773 1.14-1.713 1.14-2.82 0-1.107-.38-2.04-1.14-2.8-.76-.773-1.693-1.16-2.8-1.16-1.106 0-2.04.387-2.8 1.16-.76.76-1.14 1.693-1.14 2.8 0 1.107.38 2.047 1.14 2.82Zm11.589-6.16c.614-1.213 1.667-1.82 3.16-1.82v1.28c-.906 0-1.66.267-2.26.8-.6.533-.9 1.373-.9 2.52V208h-1.32v-10h1.32v1.66Zm8.984-1.9c1.48 0 2.673.527 3.58 1.58.92 1.04 1.38 2.273 1.38 3.7 0 .147-.013.353-.04.62h-8.78c.133 1.013.56 1.82 1.28 2.42.733.587 1.633.88 2.7.88.76 0 1.413-.153 1.96-.46.56-.32.98-.733 1.26-1.24l1.16.68a4.745 4.745 0 0 1-1.8 1.68c-.76.413-1.627.62-2.6.62-1.573 0-2.853-.493-3.84-1.48-.987-.987-1.48-2.24-1.48-3.76 0-1.493.487-2.74 1.46-3.74s2.227-1.5 3.76-1.5Zm0 1.28c-1.04 0-1.913.313-2.62.94-.693.613-1.107 1.413-1.24 2.4h7.46c-.133-1.053-.54-1.873-1.22-2.46a3.529 3.529 0 0 0-2.38-.88Zm24.1-1.04h1.36l-3.08 10h-1.44l-2.58-8.06-2.58 8.06h-1.44l-3.08-10h1.36l2.46 8.3 2.62-8.3h1.32l2.62 8.3 2.46-8.3Zm4.69-2.4a.923.923 0 0 1-.68.28.926.926 0 0 1-.68-.28.928.928 0 0 1-.28-.68c0-.267.094-.493.28-.68a.926.926 0 0 1 .68-.28c.267 0 .494.093.68.28.187.187.28.413.28.68a.925.925 0 0 1-.28.68Zm-1.34 12.4v-10h1.32v10h-1.32Zm9.421-8.72h-2.88v6.06c0 .547.107.94.32 1.18.214.227.534.347.96.36.427 0 .96-.013 1.6-.04V208c-1.4.213-2.453.113-3.16-.3-.693-.413-1.04-1.2-1.04-2.36v-6.06h-2.1V198h2.1v-2.4l1.32-.4v2.8h2.88v1.28Zm6.88-1.52c1.214 0 2.167.373 2.86 1.12.707.733 1.06 1.727 1.06 2.98V208h-1.32v-6.14c0-.893-.24-1.587-.72-2.08-.466-.493-1.133-.74-2-.74-.96 0-1.74.307-2.34.92-.6.6-.9 1.533-.9 2.8V208h-1.32v-14h1.32v5.56c.747-1.2 1.867-1.8 3.36-1.8Zm16.013 10.52c-1.507 0-2.767-.507-3.78-1.52-1-1.013-1.5-2.267-1.5-3.76 0-1.493.5-2.747 1.5-3.76 1.013-1.013 2.273-1.52 3.78-1.52.973 0 1.86.233 2.66.7a4.659 4.659 0 0 1 1.82 1.88l-2.22 1.3c-.2-.413-.507-.74-.92-.98-.4-.24-.854-.36-1.36-.36-.774 0-1.414.26-1.92.78-.507.507-.76 1.16-.76 1.96 0 .787.253 1.44.76 1.96.506.507 1.146.76 1.92.76.52 0 .98-.113 1.38-.34.413-.24.72-.567.92-.98l2.24 1.28a5.08 5.08 0 0 1-1.86 1.9c-.8.467-1.687.7-2.66.7Zm8.542-8.56c.24-.64.634-1.12 1.18-1.44.56-.32 1.18-.48 1.86-.48v2.88c-.786-.093-1.493.067-2.12.48-.613.413-.92 1.1-.92 2.06V208h-2.58v-10h2.58v1.72Zm12.698 7.04c-1.027 1.013-2.28 1.52-3.76 1.52s-2.733-.507-3.76-1.52c-1.013-1.027-1.52-2.28-1.52-3.76s.507-2.727 1.52-3.74c1.027-1.027 2.28-1.54 3.76-1.54s2.733.513 3.76 1.54c1.027 1.013 1.54 2.26 1.54 3.74 0 1.48-.513 2.733-1.54 3.76Zm-5.7-1.78c.52.52 1.167.78 1.94.78.773 0 1.42-.26 1.94-.78s.78-1.18.78-1.98-.26-1.46-.78-1.98-1.167-.78-1.94-.78c-.773 0-1.42.26-1.94.78-.507.52-.76 1.18-.76 1.98s.253 1.46.76 1.98Zm11.22-4.14c0 .267.174.487.52.66.36.16.794.307 1.3.44.507.12 1.014.28 1.52.48.507.187.934.507 1.28.96.36.453.54 1.02.54 1.7 0 1.027-.386 1.82-1.16 2.38-.76.547-1.713.82-2.86.82-2.053 0-3.453-.793-4.2-2.38l2.24-1.26c.294.867.947 1.3 1.96 1.3.92 0 1.38-.287 1.38-.86 0-.267-.18-.48-.54-.64a6.675 6.675 0 0 0-1.28-.46c-.506-.133-1.013-.3-1.52-.5-.506-.2-.94-.513-1.3-.94-.346-.44-.52-.987-.52-1.64 0-.987.36-1.76 1.08-2.32.734-.573 1.64-.86 2.72-.86.814 0 1.554.187 2.22.56.667.36 1.194.88 1.58 1.56l-2.2 1.2c-.32-.68-.853-1.02-1.6-1.02-.333 0-.613.073-.84.22a.693.693 0 0 0-.32.6Zm8.672 0c0 .267.173.487.52.66.36.16.793.307 1.3.44.507.12 1.013.28 1.52.48a2.82 2.82 0 0 1 1.28.96c.36.453.54 1.02.54 1.7 0 1.027-.387 1.82-1.16 2.38-.76.547-1.713.82-2.86.82-2.053 0-3.453-.793-4.2-2.38l2.24-1.26c.293.867.947 1.3 1.96 1.3.92 0 1.38-.287 1.38-.86 0-.267-.18-.48-.54-.64a6.7 6.7 0 0 0-1.28-.46 13.42 13.42 0 0 1-1.52-.5c-.507-.2-.94-.513-1.3-.94-.347-.44-.52-.987-.52-1.64 0-.987.36-1.76 1.08-2.32.733-.573 1.64-.86 2.72-.86a4.47 4.47 0 0 1 2.22.56c.667.36 1.193.88 1.58 1.56l-2.2 1.2c-.32-.68-.853-1.02-1.6-1.02-.333 0-.613.073-.84.22a.693.693 0 0 0-.32.6Zm14.297 0c0 .267.173.487.52.66.36.16.793.307 1.3.44.507.12 1.013.28 1.52.48a2.82 2.82 0 0 1 1.28.96c.36.453.54 1.02.54 1.7 0 1.027-.387 1.82-1.16 2.38-.76.547-1.713.82-2.86.82-2.053 0-3.453-.793-4.2-2.38l2.24-1.26c.293.867.947 1.3 1.96 1.3.92 0 1.38-.287 1.38-.86 0-.267-.18-.48-.54-.64a6.7 6.7 0 0 0-1.28-.46 13.42 13.42 0 0 1-1.52-.5c-.507-.2-.94-.513-1.3-.94-.347-.44-.52-.987-.52-1.64 0-.987.36-1.76 1.08-2.32.733-.573 1.64-.86 2.72-.86a4.47 4.47 0 0 1 2.22.56c.667.36 1.193.88 1.58 1.56l-2.2 1.2c-.32-.68-.853-1.02-1.6-1.02-.333 0-.613.073-.84.22a.693.693 0 0 0-.32.6Zm8.863 3.22c.346 1.253 1.286 1.88 2.82 1.88.986 0 1.733-.333 2.24-1l2.08 1.2c-.987 1.427-2.44 2.14-4.36 2.14-1.654 0-2.98-.5-3.98-1.5s-1.501-2.26-1.501-3.78c0-1.507.494-2.76 1.481-3.76.986-1.013 2.253-1.52 3.8-1.52 1.466 0 2.673.507 3.62 1.52.96 1.013 1.44 2.267 1.44 3.76 0 .333-.034.687-.1 1.06h-7.54Zm-.04-2h5.1c-.147-.68-.454-1.187-.92-1.52a2.57 2.57 0 0 0-1.56-.5c-.694 0-1.267.18-1.72.54-.454.347-.754.84-.9 1.48Zm9.481 5.94v-14.6h2.58V208h-2.58Zm4.941 0v-14.6h2.58V208h-2.58Zm7.243-7.16c0 .267.174.487.52.66.36.16.794.307 1.3.44.507.12 1.014.28 1.52.48.507.187.934.507 1.28.96.36.453.54 1.02.54 1.7 0 1.027-.386 1.82-1.16 2.38-.76.547-1.713.82-2.86.82-2.053 0-3.453-.793-4.2-2.38l2.24-1.26c.294.867.947 1.3 1.96 1.3.92 0 1.38-.287 1.38-.86 0-.267-.18-.48-.54-.64a6.675 6.675 0 0 0-1.28-.46c-.506-.133-1.013-.3-1.52-.5-.506-.2-.94-.513-1.3-.94-.346-.44-.52-.987-.52-1.64 0-.987.36-1.76 1.08-2.32.734-.573 1.64-.86 2.72-.86.814 0 1.554.187 2.22.56.667.36 1.194.88 1.58 1.56l-2.2 1.2c-.32-.68-.853-1.02-1.6-1.02-.333 0-.613.073-.84.22a.693.693 0 0 0-.32.6Zm20.737-2.84h1.32v10h-1.32v-1.96c-.92 1.467-2.267 2.2-4.04 2.2-1.427 0-2.647-.507-3.66-1.52-1-1.013-1.5-2.253-1.5-3.72s.5-2.707 1.5-3.72c1.013-1.013 2.233-1.52 3.66-1.52 1.773 0 3.12.733 4.04 2.2V198Zm-6.74 7.82c.76.76 1.693 1.14 2.8 1.14 1.107 0 2.04-.38 2.8-1.14.76-.773 1.14-1.713 1.14-2.82 0-1.107-.38-2.04-1.14-2.8-.76-.773-1.693-1.16-2.8-1.16-1.107 0-2.04.387-2.8 1.16-.76.76-1.14 1.693-1.14 2.8 0 1.107.38 2.047 1.14 2.82Zm16.155-6.54h-2.88v6.06c0 .547.107.94.32 1.18.213.227.533.347.96.36.427 0 .96-.013 1.6-.04V208c-1.4.213-2.453.113-3.16-.3-.693-.413-1.04-1.2-1.04-2.36v-6.06h-2.1V198h2.1v-2.4l1.32-.4v2.8h2.88v1.28Zm-181.152 25h-2.88v6.06c0 .547.106.94.32 1.18.213.227.533.347.96.36.426 0 .96-.013 1.6-.04V233c-1.4.213-2.454.113-3.16-.3-.694-.413-1.04-1.2-1.04-2.36v-6.06h-2.1V223h2.1v-2.4l1.32-.4v2.8h2.88v1.28Zm6.88-1.52c1.213 0 2.166.373 2.86 1.12.706.733 1.06 1.727 1.06 2.98V233h-1.32v-6.14c0-.893-.24-1.587-.72-2.08-.467-.493-1.134-.74-2-.74-.96 0-1.74.307-2.34.92-.6.6-.9 1.533-.9 2.8V233h-1.32v-14h1.32v5.56c.746-1.2 1.866-1.8 3.36-1.8Zm11.092 0c1.48 0 2.673.527 3.58 1.58.92 1.04 1.38 2.273 1.38 3.7 0 .147-.013.353-.04.62h-8.78c.133 1.013.56 1.82 1.28 2.42.733.587 1.633.88 2.7.88.76 0 1.413-.153 1.96-.46.56-.32.98-.733 1.26-1.24l1.16.68a4.745 4.745 0 0 1-1.8 1.68c-.76.413-1.627.62-2.6.62-1.573 0-2.853-.493-3.84-1.48-.987-.987-1.48-2.24-1.48-3.76 0-1.493.487-2.74 1.46-3.74s2.227-1.5 3.76-1.5Zm0 1.28c-1.04 0-1.913.313-2.62.94-.693.613-1.107 1.413-1.24 2.4h7.46c-.133-1.053-.54-1.873-1.22-2.46a3.529 3.529 0 0 0-2.38-.88Zm17.36.24h-2.88v6.06c0 .547.106.94.32 1.18.213.227.533.347.96.36.426 0 .96-.013 1.6-.04V233c-1.4.213-2.454.113-3.16-.3-.694-.413-1.04-1.2-1.04-2.36v-6.06h-2.1V223h2.1v-2.4l1.32-.4v2.8h2.88v1.28Zm3.54-3.68a.926.926 0 0 1-.68.28.923.923 0 0 1-.68-.28.925.925 0 0 1-.28-.68c0-.267.093-.493.28-.68a.923.923 0 0 1 .68-.28c.266 0 .493.093.68.28.186.187.28.413.28.68a.928.928 0 0 1-.28.68Zm-1.34 12.4v-10h1.32v10h-1.32Zm14.781-10.24c1.12 0 2.02.36 2.7 1.08.693.72 1.04 1.693 1.04 2.92V233h-1.32v-6.24c0-.867-.227-1.533-.68-2-.44-.48-1.027-.72-1.76-.72-.827 0-1.5.28-2.02.84-.507.547-.76 1.407-.76 2.58V233h-1.32v-6.24c0-.88-.214-1.553-.64-2.02-.414-.467-.98-.7-1.7-.7-.8 0-1.48.28-2.04.84-.56.56-.84 1.42-.84 2.58V233h-1.32v-10h1.32v1.46c.72-1.133 1.74-1.7 3.06-1.7 1.44 0 2.453.607 3.04 1.82.72-1.213 1.8-1.82 3.24-1.82Zm10.913 0c1.48 0 2.673.527 3.58 1.58.92 1.04 1.38 2.273 1.38 3.7 0 .147-.013.353-.04.62h-8.78c.133 1.013.56 1.82 1.28 2.42.733.587 1.633.88 2.7.88.76 0 1.413-.153 1.96-.46.56-.32.98-.733 1.26-1.24l1.16.68a4.745 4.745 0 0 1-1.8 1.68c-.76.413-1.627.62-2.6.62-1.573 0-2.853-.493-3.84-1.48-.987-.987-1.48-2.24-1.48-3.76 0-1.493.487-2.74 1.46-3.74s2.227-1.5 3.76-1.5Zm0 1.28c-1.04 0-1.913.313-2.62.94-.693.613-1.107 1.413-1.24 2.4h7.46c-.133-1.053-.54-1.873-1.22-2.46a3.529 3.529 0 0 0-2.38-.88Zm20.44 7.7c-1.014 1-2.254 1.5-3.72 1.5-1.467 0-2.714-.5-3.74-1.5-1.014-1.013-1.52-2.26-1.52-3.74 0-1.48.506-2.72 1.52-3.72 1.026-1.013 2.273-1.52 3.74-1.52 1.466 0 2.706.507 3.72 1.52 1.026 1 1.54 2.24 1.54 3.72s-.514 2.727-1.54 3.74Zm-6.52-.92c.76.76 1.693 1.14 2.8 1.14 1.106 0 2.04-.38 2.8-1.14.76-.773 1.14-1.713 1.14-2.82 0-1.107-.38-2.04-1.14-2.8-.76-.773-1.694-1.16-2.8-1.16-1.107 0-2.04.387-2.8 1.16-.76.76-1.14 1.693-1.14 2.8 0 1.107.38 2.047 1.14 2.82Zm14.878-10.78c-.973-.08-1.7.087-2.18.5-.467.413-.7 1.1-.7 2.06v.4h2.88v1.28h-2.88V233h-1.32v-8.72h-1.7V223h1.7v-.4c0-1.307.36-2.293 1.08-2.96.733-.68 1.773-.973 3.12-.88v1.28Zm11.766 2.72c1.427 0 2.64.507 3.64 1.52 1.013 1.013 1.52 2.253 1.52 3.72s-.507 2.707-1.52 3.72c-1 1.013-2.213 1.52-3.64 1.52-1.773 0-3.12-.733-4.04-2.2V237h-1.32v-14h1.32v1.96c.92-1.467 2.267-2.2 4.04-2.2Zm-2.9 8.06c.76.76 1.693 1.14 2.8 1.14 1.107 0 2.04-.38 2.8-1.14.76-.773 1.14-1.713 1.14-2.82 0-1.107-.38-2.04-1.14-2.8-.76-.773-1.693-1.16-2.8-1.16-1.107 0-2.04.387-2.8 1.16-.76.76-1.14 1.693-1.14 2.8 0 1.107.38 2.047 1.14 2.82Zm17.295-7.82h1.32v10h-1.32v-1.56c-.747 1.2-1.867 1.8-3.36 1.8-1.213 0-2.173-.367-2.88-1.1-.693-.747-1.04-1.747-1.04-3V223h1.32v6.14c0 .893.233 1.587.7 2.08.48.493 1.153.74 2.02.74.96 0 1.74-.3 2.34-.9.6-.613.9-1.553.9-2.82V223Zm5.432 1.66c.614-1.213 1.667-1.82 3.16-1.82v1.28c-.906 0-1.66.267-2.26.8-.6.533-.9 1.373-.9 2.52V233h-1.32v-10h1.32v1.66Zm9.024 8.58c-1.507 0-2.76-.5-3.76-1.5-1-1.013-1.5-2.26-1.5-3.74 0-1.48.5-2.72 1.5-3.72 1-1.013 2.253-1.52 3.76-1.52.987 0 1.873.24 2.66.72.787.467 1.36 1.1 1.72 1.9l-1.08.62c-.267-.6-.7-1.073-1.3-1.42-.587-.36-1.253-.54-2-.54-1.107 0-2.04.387-2.8 1.16-.76.76-1.14 1.693-1.14 2.8 0 1.107.38 2.047 1.14 2.82.76.76 1.693 1.14 2.8 1.14.747 0 1.413-.173 2-.52a3.86 3.86 0 0 0 1.38-1.44l1.1.64a4.621 4.621 0 0 1-1.82 1.9c-.8.467-1.687.7-2.66.7Zm11.055-10.48c1.213 0 2.167.373 2.86 1.12.707.733 1.06 1.727 1.06 2.98V233h-1.32v-6.14c0-.893-.24-1.587-.72-2.08-.467-.493-1.133-.74-2-.74-.96 0-1.74.307-2.34.92-.6.6-.9 1.533-.9 2.8V233h-1.32v-14h1.32v5.56c.747-1.2 1.867-1.8 3.36-1.8Zm15.072.24h1.32v10h-1.32v-1.96c-.92 1.467-2.266 2.2-4.04 2.2-1.426 0-2.646-.507-3.66-1.52-1-1.013-1.5-2.253-1.5-3.72s.5-2.707 1.5-3.72c1.014-1.013 2.234-1.52 3.66-1.52 1.774 0 3.12.733 4.04 2.2V223Zm-6.74 7.82c.76.76 1.694 1.14 2.8 1.14 1.107 0 2.04-.38 2.8-1.14.76-.773 1.14-1.713 1.14-2.82 0-1.107-.38-2.04-1.14-2.8-.76-.773-1.693-1.16-2.8-1.16-1.106 0-2.04.387-2.8 1.16-.76.76-1.14 1.693-1.14 2.8 0 1.107.38 2.047 1.14 2.82Zm11.895-5.2c0 .453.2.813.6 1.08.4.267.887.473 1.46.62a27.65 27.65 0 0 1 1.72.5c.574.173 1.06.473 1.46.9.4.413.6.96.6 1.64 0 .853-.34 1.547-1.02 2.08-.666.533-1.533.8-2.6.8-.96 0-1.78-.213-2.46-.64-.666-.427-1.133-.98-1.4-1.66l1.12-.66c.187.52.52.933 1 1.24.494.293 1.074.44 1.74.44.654 0 1.2-.127 1.64-.38.44-.267.66-.673.66-1.22 0-.453-.2-.813-.6-1.08-.4-.267-.886-.473-1.46-.62a42.909 42.909 0 0 1-1.72-.48 3.515 3.515 0 0 1-1.46-.9c-.4-.427-.6-.98-.6-1.66 0-.813.32-1.493.96-2.04.654-.547 1.474-.82 2.46-.82.814 0 1.527.187 2.14.56.614.36 1.067.853 1.36 1.48l-1.1.64c-.386-.933-1.186-1.4-2.4-1.4-.573 0-1.066.14-1.48.42-.413.267-.62.653-.62 1.16Zm12.369-2.86c1.48 0 2.674.527 3.58 1.58.92 1.04 1.38 2.273 1.38 3.7 0 .147-.013.353-.04.62h-8.78c.134 1.013.56 1.82 1.28 2.42.734.587 1.634.88 2.7.88.76 0 1.414-.153 1.96-.46.56-.32.98-.733 1.26-1.24l1.16.68a4.745 4.745 0 0 1-1.8 1.68c-.76.413-1.626.62-2.6.62-1.573 0-2.853-.493-3.84-1.48-.986-.987-1.48-2.24-1.48-3.76 0-1.493.487-2.74 1.46-3.74.974-1 2.227-1.5 3.76-1.5Zm0 1.28c-1.04 0-1.913.313-2.62.94-.693.613-1.106 1.413-1.24 2.4h7.46c-.133-1.053-.54-1.873-1.22-2.46a3.529 3.529 0 0 0-2.38-.88ZM223.16 168v-8.468l13.224-14.326c.232-.271.561-.638.986-1.102.464-.464.773-.793.928-.986.193-.193.425-.445.696-.754.309-.348.503-.619.58-.812a5.27 5.27 0 0 0 .29-.696c.116-.271.174-.541.174-.812 0-.657-.232-1.199-.696-1.624-.464-.464-1.141-.696-2.03-.696-2.165 0-3.77 1.373-4.814 4.118l-10.208-5.568c1.353-3.209 3.345-5.645 5.974-7.308 2.668-1.663 5.626-2.494 8.874-2.494 3.983 0 7.385 1.141 10.208 3.422 2.861 2.243 4.292 5.355 4.292 9.338 0 2.436-.541 4.563-1.624 6.38-1.044 1.817-2.707 4.002-4.988 6.554l-4.118 4.582h11.6V168H223.16Zm66.172 0h-12.876l-5.8-9.744-5.858 9.744h-12.876l12.296-20.532-12.006-20.068h12.876l5.568 9.28 5.51-9.28h12.876l-11.948 20.068L289.332 168Z"/><path fill="#000" d="M95.995 60.903A.999.999 0 0 0 95 60H85v-1c0-3.208-1.248-6.222-3.513-8.487A11.925 11.925 0 0 0 73 47c-6.617 0-12 5.383-12 12v1H51a1 1 0 0 0-.995.903l-4 41a.994.994 0 0 0 .101.544l4 8a1 1 0 0 0 .895.553h44c.379 0 .725-.214.895-.553l4-8c.084-.168.119-.357.101-.544l-4-41h-.002ZM79 60H67v-1c0-1.603.624-3.109 1.757-4.243A5.961 5.961 0 0 1 73 53c3.309 0 6 2.691 6 6v1Zm15.829 48.106-5.029-6.705a.998.998 0 0 0-.8-.4H78a1 1 0 1 0 0 2h10.5l4.5 6H53l4.5-6H65a1 1 0 1 0 0-2h-8a1 1 0 0 0-.8.4l-5.029 6.705-3.148-6.295L51.907 62H61v3a1 1 0 0 0 1 1h4a1 1 0 0 0 1-1v-3h12v3a1 1 0 0 0 1 1h4a1 1 0 0 0 1-1v-3h9.093l3.884 39.811-3.148 6.295Z"/><path fill="#000" d="M54.797 68.595a1.006 1.006 0 0 0-1.092.898l-1.07 11a1 1 0 0 0 1.99.194l1.07-11a1 1 0 0 0-.898-1.092ZM87 82H77V67a1.002 1.002 0 0 0-1.792-.611l-17 22a1 1 0 0 0 .791 1.612h10v15a.999.999 0 0 0 1.791.611l2.32-3 14.68-19A1 1 0 0 0 87 82ZM55.092 66.587a1 1 0 1 0 0-2 1 1 0 0 0 0 2Z"/></svg>