<svg xmlns="http://www.w3.org/2000/svg" width="507" height="301" fill="none"><path fill="#C8DBD4" d="M0 38C0 17.013 17.013 0 38 0h431c20.987 0 38 17.013 38 38v225c0 20.987-17.013 38-38 38H38c-20.987 0-38-17.013-38-38V38Z"/><path fill="#141414" d="M42.16 177v-8.468l13.224-14.326c.232-.271.56-.638.986-1.102.464-.464.773-.793.928-.986.193-.193.425-.445.696-.754.31-.348.503-.619.58-.812a5.31 5.31 0 0 0 .29-.696c.116-.271.174-.541.174-.812 0-.657-.232-1.199-.696-1.624-.464-.464-1.14-.696-2.03-.696-2.165 0-3.77 1.373-4.814 4.118l-10.208-5.568c1.353-3.209 3.345-5.645 5.974-7.308 2.668-1.663 5.626-2.494 8.874-2.494 3.983 0 7.385 1.141 10.208 3.422 2.861 2.243 4.292 5.355 4.292 9.338 0 2.436-.541 4.563-1.624 6.38-1.044 1.817-2.707 4.002-4.988 6.554l-4.118 4.582h11.6V177H42.16Zm46.155-26.39c4.022 0 7.347 1.141 9.976 3.422 2.63 2.243 3.944 5.491 3.944 9.744 0 4.524-1.43 8.023-4.292 10.498-2.861 2.436-6.457 3.654-10.788 3.654-3.828 0-7.114-.812-9.86-2.436-2.706-1.624-4.64-4.021-5.8-7.192l10.208-5.858c.812 2.823 2.63 4.234 5.452 4.234 1.044 0 1.876-.251 2.494-.754.658-.503.986-1.237.986-2.204 0-1.895-1.16-2.842-3.48-2.842h-13.34l1.682-24.476h24.418v11.252H86.111l-.232 2.958h2.436Zm24.956 6.902c-3.209 0-5.896-1.063-8.062-3.19-2.165-2.165-3.248-4.775-3.248-7.83 0-3.055 1.083-5.645 3.248-7.772 2.166-2.165 4.853-3.248 8.062-3.248 3.171 0 5.82 1.083 7.946 3.248 2.166 2.127 3.248 4.717 3.248 7.772 0 3.055-1.082 5.665-3.248 7.83-2.126 2.127-4.775 3.19-7.946 3.19Zm-3.944 13.05 27.26-28.884 4.234 2.436-27.318 28.826-4.176-2.378Zm1.856-21.982c.542.541 1.218.812 2.03.812.812 0 1.489-.29 2.03-.87.542-.58.812-1.257.812-2.03 0-.812-.27-1.489-.812-2.03-.541-.58-1.218-.87-2.03-.87-.812 0-1.488.29-2.03.87-.502.541-.754 1.218-.754 2.03 0 .812.252 1.508.754 2.088Zm26.448 29.348c-3.209 0-5.896-1.063-8.062-3.19-2.165-2.165-3.248-4.775-3.248-7.83 0-3.055 1.083-5.645 3.248-7.772 2.166-2.165 4.853-3.248 8.062-3.248 3.171 0 5.82 1.083 7.946 3.248 2.166 2.127 3.248 4.717 3.248 7.772 0 3.055-1.082 5.665-3.248 7.83-2.126 2.127-4.775 3.19-7.946 3.19Zm-2.088-8.932c.542.541 1.218.812 2.03.812.812 0 1.489-.29 2.03-.87.542-.58.812-1.257.812-2.03 0-.812-.27-1.489-.812-2.03-.541-.58-1.218-.87-2.03-.87-.812 0-1.488.29-2.03.87-.502.541-.754 1.218-.754 2.03 0 .812.252 1.508.754 2.088ZM44 216.68h6.8V218h-8.2v-14h8.1v1.32H44v4.96h6.2v1.32H44v5.08ZM61.406 218h-1.58l-3.12-4.12-3.12 4.12h-1.58l3.92-5.18-3.66-4.82h1.58l2.86 3.78 2.86-3.78h1.58l-3.64 4.82 3.9 5.18Zm7.095-8.72h-2.88v6.06c0 .547.106.94.32 1.18.213.227.533.347.96.36.426 0 .96-.013 1.6-.04V218c-1.4.213-2.454.113-3.16-.3-.694-.413-1.04-1.2-1.04-2.36v-6.06h-2.1V208h2.1v-2.4l1.32-.4v2.8h2.88v1.28Zm3.52.38c.613-1.213 1.666-1.82 3.16-1.82v1.28c-.907 0-1.66.267-2.26.8-.6.533-.9 1.373-.9 2.52V218H70.7v-10h1.32v1.66ZM84.984 208h1.32v10h-1.32v-1.96c-.92 1.467-2.266 2.2-4.04 2.2-1.426 0-2.646-.507-3.66-1.52-1-1.013-1.5-2.253-1.5-3.72s.5-2.707 1.5-3.72c1.014-1.013 2.234-1.52 3.66-1.52 1.774 0 3.12.733 4.04 2.2V208Zm-6.74 7.82c.76.76 1.694 1.14 2.8 1.14 1.107 0 2.04-.38 2.8-1.14.76-.773 1.14-1.713 1.14-2.82 0-1.107-.38-2.04-1.14-2.8-.76-.773-1.693-1.16-2.8-1.16-1.106 0-2.04.387-2.8 1.16-.76.76-1.14 1.693-1.14 2.8 0 1.107.38 2.047 1.14 2.82Zm21.215-8.06c1.427 0 2.64.507 3.64 1.52 1.014 1.013 1.52 2.253 1.52 3.72s-.506 2.707-1.52 3.72c-1 1.013-2.213 1.52-3.64 1.52-1.773 0-3.12-.733-4.04-2.2V218H94.1v-14h1.32v5.96c.92-1.467 2.267-2.2 4.04-2.2Zm-2.9 8.06c.76.76 1.694 1.14 2.8 1.14 1.107 0 2.04-.38 2.8-1.14.76-.773 1.14-1.713 1.14-2.82 0-1.107-.38-2.04-1.14-2.8-.76-.773-1.693-1.16-2.8-1.16-1.106 0-2.04.387-2.8 1.16-.76.76-1.14 1.693-1.14 2.8 0 1.107.38 2.047 1.14 2.82Zm18.635.92c-1.013 1-2.253 1.5-3.72 1.5s-2.713-.5-3.74-1.5c-1.013-1.013-1.52-2.26-1.52-3.74 0-1.48.507-2.72 1.52-3.72 1.027-1.013 2.273-1.52 3.74-1.52s2.707.507 3.72 1.52c1.027 1 1.54 2.24 1.54 3.72s-.513 2.727-1.54 3.74Zm-6.52-.92c.76.76 1.693 1.14 2.8 1.14 1.107 0 2.04-.38 2.8-1.14.76-.773 1.14-1.713 1.14-2.82 0-1.107-.38-2.04-1.14-2.8-.76-.773-1.693-1.16-2.8-1.16-1.107 0-2.04.387-2.8 1.16-.76.76-1.14 1.693-1.14 2.8 0 1.107.38 2.047 1.14 2.82Zm18.649.92c-1.013 1-2.253 1.5-3.72 1.5s-2.713-.5-3.74-1.5c-1.013-1.013-1.52-2.26-1.52-3.74 0-1.48.507-2.72 1.52-3.72 1.027-1.013 2.273-1.52 3.74-1.52s2.707.507 3.72 1.52c1.027 1 1.54 2.24 1.54 3.72s-.513 2.727-1.54 3.74Zm-6.52-.92c.76.76 1.693 1.14 2.8 1.14 1.107 0 2.04-.38 2.8-1.14.76-.773 1.14-1.713 1.14-2.82 0-1.107-.38-2.04-1.14-2.8-.76-.773-1.693-1.16-2.8-1.16-1.107 0-2.04.387-2.8 1.16-.76.76-1.14 1.693-1.14 2.8 0 1.107.38 2.047 1.14 2.82Zm18.349 2.18h-1.76l-5-4.82V218h-1.32v-14h1.32v8.42l4.76-4.42h1.8l-5.16 4.8 5.36 5.2Zm3.143-12.4a.926.926 0 0 1-.68.28.923.923 0 0 1-.68-.28.925.925 0 0 1-.28-.68c0-.267.093-.493.28-.68a.923.923 0 0 1 .68-.28c.266 0 .493.093.68.28.186.187.28.413.28.68a.928.928 0 0 1-.28.68Zm-1.34 12.4v-10h1.32v10h-1.32Zm8.801-10.24c1.213 0 2.166.373 2.86 1.12.706.733 1.06 1.727 1.06 2.98V218h-1.32v-6.14c0-.893-.24-1.587-.72-2.08-.467-.493-1.134-.74-2-.74-.96 0-1.74.307-2.34.92-.6.6-.9 1.533-.9 2.8V218h-1.32v-10h1.32v1.56c.746-1.2 1.866-1.8 3.36-1.8Zm15.072.24h1.32v9.6c0 1.44-.493 2.573-1.48 3.4s-2.167 1.24-3.54 1.24c-2.347 0-3.927-.813-4.74-2.44l1.16-.66c.6 1.213 1.793 1.82 3.58 1.82 1.147 0 2.047-.307 2.7-.92.667-.6 1-1.413 1-2.44v-1.56c-.92 1.467-2.267 2.2-4.04 2.2-1.427 0-2.647-.507-3.66-1.52-1-1.013-1.5-2.253-1.5-3.72s.5-2.707 1.5-3.72c1.013-1.013 2.233-1.52 3.66-1.52 1.773 0 3.12.733 4.04 2.2V208Zm-6.74 7.82c.76.76 1.693 1.14 2.8 1.14 1.107 0 2.04-.38 2.8-1.14.76-.773 1.14-1.713 1.14-2.82 0-1.107-.38-2.04-1.14-2.8-.76-.773-1.693-1.16-2.8-1.16-1.107 0-2.04.387-2.8 1.16-.76.76-1.14 1.693-1.14 2.8 0 1.107.38 2.047 1.14 2.82Zm11.895-5.2c0 .453.2.813.6 1.08.4.267.887.473 1.46.62a27.85 27.85 0 0 1 1.72.5c.573.173 1.06.473 1.46.9.4.413.6.96.6 1.64 0 .853-.34 1.547-1.02 2.08-.667.533-1.533.8-2.6.8-.96 0-1.78-.213-2.46-.64-.667-.427-1.133-.98-1.4-1.66l1.12-.66c.187.52.52.933 1 1.24.493.293 1.073.44 1.74.44.653 0 1.2-.127 1.64-.38.44-.267.66-.673.66-1.22 0-.453-.2-.813-.6-1.08-.4-.267-.887-.473-1.46-.62a42.448 42.448 0 0 1-1.72-.48 3.515 3.515 0 0 1-1.46-.9c-.4-.427-.6-.98-.6-1.66 0-.813.32-1.493.96-2.04.653-.547 1.473-.82 2.46-.82.813 0 1.527.187 2.14.56.613.36 1.067.853 1.36 1.48l-1.1.64c-.387-.933-1.187-1.4-2.4-1.4-.573 0-1.067.14-1.48.42-.413.267-.62.653-.62 1.16Zm25.082-2.62h1.36l-3.08 10h-1.44l-2.58-8.06-2.58 8.06h-1.44l-3.08-10h1.36l2.46 8.3 2.62-8.3h1.32l2.62 8.3 2.46-8.3Zm4.691-2.4a.926.926 0 0 1-.68.28.923.923 0 0 1-.68-.28.925.925 0 0 1-.28-.68c0-.267.093-.493.28-.68a.923.923 0 0 1 .68-.28c.266 0 .493.093.68.28.186.187.28.413.28.68a.928.928 0 0 1-.28.68Zm-1.34 12.4v-10h1.32v10h-1.32Zm9.421-8.72h-2.88v6.06c0 .547.106.94.32 1.18.213.227.533.347.96.36.426 0 .96-.013 1.6-.04V218c-1.4.213-2.454.113-3.16-.3-.694-.413-1.04-1.2-1.04-2.36v-6.06h-2.1V208h2.1v-2.4l1.32-.4v2.8h2.88v1.28Zm6.88-1.52c1.213 0 2.166.373 2.86 1.12.706.733 1.06 1.727 1.06 2.98V218h-1.32v-6.14c0-.893-.24-1.587-.72-2.08-.467-.493-1.134-.74-2-.74-.96 0-1.74.307-2.34.92-.6.6-.9 1.533-.9 2.8V218h-1.32v-14h1.32v5.56c.746-1.2 1.866-1.8 3.36-1.8Zm22.132 0c1.12 0 2.02.36 2.7 1.08.693.72 1.04 1.693 1.04 2.92V218h-1.32v-6.24c0-.867-.227-1.533-.68-2-.44-.48-1.027-.72-1.76-.72-.827 0-1.5.28-2.02.84-.507.547-.76 1.407-.76 2.58V218h-1.32v-6.24c0-.88-.213-1.553-.64-2.02-.413-.467-.98-.7-1.7-.7-.8 0-1.48.28-2.04.84-.56.56-.84 1.42-.84 2.58V218h-1.32v-10h1.32v1.46c.72-1.133 1.74-1.7 3.06-1.7 1.44 0 2.453.607 3.04 1.82.72-1.213 1.8-1.82 3.24-1.82Zm14.893.24h1.32v10h-1.32v-1.96c-.92 1.467-2.266 2.2-4.04 2.2-1.426 0-2.646-.507-3.66-1.52-1-1.013-1.5-2.253-1.5-3.72s.5-2.707 1.5-3.72c1.014-1.013 2.234-1.52 3.66-1.52 1.774 0 3.12.733 4.04 2.2V208Zm-6.74 7.82c.76.76 1.694 1.14 2.8 1.14 1.107 0 2.04-.38 2.8-1.14.76-.773 1.14-1.713 1.14-2.82 0-1.107-.38-2.04-1.14-2.8-.76-.773-1.693-1.16-2.8-1.16-1.106 0-2.04.387-2.8 1.16-.76.76-1.14 1.693-1.14 2.8 0 1.107.38 2.047 1.14 2.82Zm12.175-6.16c.613-1.213 1.667-1.82 3.16-1.82v1.28c-.907 0-1.66.267-2.26.8-.6.533-.9 1.373-.9 2.52V218h-1.32v-10h1.32v1.66Zm13.049 8.34h-1.76l-5-4.82V218h-1.32v-14h1.32v8.42l4.76-4.42h1.8l-5.16 4.8 5.36 5.2Zm5.427-10.24c1.48 0 2.673.527 3.58 1.58.92 1.04 1.38 2.273 1.38 3.7 0 .147-.014.353-.04.62h-8.78c.133 1.013.56 1.82 1.28 2.42.733.587 1.633.88 2.7.88.76 0 1.413-.153 1.96-.46.56-.32.98-.733 1.26-1.24l1.16.68a4.745 4.745 0 0 1-1.8 1.68c-.76.413-1.627.62-2.6.62-1.574 0-2.854-.493-3.84-1.48-.987-.987-1.48-2.24-1.48-3.76 0-1.493.486-2.74 1.46-3.74.973-1 2.226-1.5 3.76-1.5Zm0 1.28c-1.04 0-1.914.313-2.62.94-.694.613-1.107 1.413-1.24 2.4h7.46c-.134-1.053-.54-1.873-1.22-2.46a3.53 3.53 0 0 0-2.38-.88Zm12.067.24h-2.88v6.06c0 .547.106.94.32 1.18.213.227.533.347.96.36.426 0 .96-.013 1.6-.04V218c-1.4.213-2.454.113-3.16-.3-.694-.413-1.04-1.2-1.04-2.36v-6.06h-2.1V208h2.1v-2.4l1.32-.4v2.8h2.88v1.28Zm3.54-3.68a.926.926 0 0 1-.68.28.923.923 0 0 1-.68-.28.925.925 0 0 1-.28-.68c0-.267.093-.493.28-.68a.923.923 0 0 1 .68-.28c.266 0 .493.093.68.28.186.187.28.413.28.68a.928.928 0 0 1-.28.68Zm-1.34 12.4v-10h1.32v10h-1.32Zm8.801-10.24c1.213 0 2.166.373 2.86 1.12.706.733 1.06 1.727 1.06 2.98V218h-1.32v-6.14c0-.893-.24-1.587-.72-2.08-.467-.493-1.134-.74-2-.74-.96 0-1.74.307-2.34.92-.6.6-.9 1.533-.9 2.8V218h-1.32v-10h1.32v1.56c.746-1.2 1.866-1.8 3.36-1.8Zm15.072.24h1.32v9.6c0 1.44-.493 2.573-1.48 3.4s-2.167 1.24-3.54 1.24c-2.347 0-3.927-.813-4.74-2.44l1.16-.66c.6 1.213 1.793 1.82 3.58 1.82 1.147 0 2.047-.307 2.7-.92.667-.6 1-1.413 1-2.44v-1.56c-.92 1.467-2.267 2.2-4.04 2.2-1.427 0-2.647-.507-3.66-1.52-1-1.013-1.5-2.253-1.5-3.72s.5-2.707 1.5-3.72c1.013-1.013 2.233-1.52 3.66-1.52 1.773 0 3.12.733 4.04 2.2V208Zm-6.74 7.82c.76.76 1.693 1.14 2.8 1.14 1.107 0 2.04-.38 2.8-1.14.76-.773 1.14-1.713 1.14-2.82 0-1.107-.38-2.04-1.14-2.8-.76-.773-1.693-1.16-2.8-1.16-1.107 0-2.04.387-2.8 1.16-.76.76-1.14 1.693-1.14 2.8 0 1.107.38 2.047 1.14 2.82ZM47.06 243.24c-1.507 0-2.76-.5-3.76-1.5-1-1.013-1.5-2.26-1.5-3.74 0-1.48.5-2.72 1.5-3.72 1-1.013 2.253-1.52 3.76-1.52.987 0 1.873.24 2.66.72.787.467 1.36 1.1 1.72 1.9l-1.08.62c-.267-.6-.7-1.073-1.3-1.42-.587-.36-1.253-.54-2-.54-1.107 0-2.04.387-2.8 1.16-.76.76-1.14 1.693-1.14 2.8 0 1.107.38 2.047 1.14 2.82.76.76 1.693 1.14 2.8 1.14.747 0 1.413-.173 2-.52a3.865 3.865 0 0 0 1.38-1.44l1.1.64a4.623 4.623 0 0 1-1.82 1.9c-.8.467-1.687.7-2.66.7ZM61.937 233h1.32v10h-1.32v-1.96c-.92 1.467-2.266 2.2-4.04 2.2-1.426 0-2.646-.507-3.66-1.52-1-1.013-1.5-2.253-1.5-3.72s.5-2.707 1.5-3.72c1.014-1.013 2.234-1.52 3.66-1.52 1.774 0 3.12.733 4.04 2.2V233Zm-6.74 7.82c.76.76 1.694 1.14 2.8 1.14 1.107 0 2.04-.38 2.8-1.14.76-.773 1.14-1.713 1.14-2.82 0-1.107-.38-2.04-1.14-2.8-.76-.773-1.693-1.16-2.8-1.16-1.106 0-2.04.387-2.8 1.16-.76.76-1.14 1.693-1.14 2.8 0 1.107.38 2.047 1.14 2.82Zm21.515-8.06c1.12 0 2.02.36 2.7 1.08.694.72 1.04 1.693 1.04 2.92V243h-1.32v-6.24c0-.867-.226-1.533-.68-2-.44-.48-1.026-.72-1.76-.72-.826 0-1.5.28-2.02.84-.506.547-.76 1.407-.76 2.58V243h-1.32v-6.24c0-.88-.213-1.553-.64-2.02-.413-.467-.98-.7-1.7-.7-.8 0-1.48.28-2.04.84-.56.56-.84 1.42-.84 2.58V243h-1.32v-10h1.32v1.46c.72-1.133 1.74-1.7 3.06-1.7 1.44 0 2.454.607 3.04 1.82.72-1.213 1.8-1.82 3.24-1.82Zm11.653 0c1.427 0 2.64.507 3.64 1.52 1.014 1.013 1.52 2.253 1.52 3.72s-.506 2.707-1.52 3.72c-1 1.013-2.213 1.52-3.64 1.52-1.773 0-3.12-.733-4.04-2.2V247h-1.32v-14h1.32v1.96c.92-1.467 2.267-2.2 4.04-2.2Zm-2.9 8.06c.76.76 1.694 1.14 2.8 1.14 1.107 0 2.04-.38 2.8-1.14.76-.773 1.14-1.713 1.14-2.82 0-1.107-.38-2.04-1.14-2.8-.76-.773-1.693-1.16-2.8-1.16-1.106 0-2.04.387-2.8 1.16-.76.76-1.14 1.693-1.14 2.8 0 1.107.38 2.047 1.14 2.82ZM104.32 233h1.32v10h-1.32v-1.96c-.92 1.467-2.266 2.2-4.04 2.2-1.426 0-2.646-.507-3.66-1.52-1-1.013-1.5-2.253-1.5-3.72s.5-2.707 1.5-3.72c1.014-1.013 2.234-1.52 3.66-1.52 1.774 0 3.12.733 4.04 2.2V233Zm-6.74 7.82c.76.76 1.694 1.14 2.8 1.14 1.107 0 2.04-.38 2.8-1.14.76-.773 1.14-1.713 1.14-2.82 0-1.107-.38-2.04-1.14-2.8-.76-.773-1.693-1.16-2.8-1.16-1.106 0-2.04.387-2.8 1.16-.76.76-1.14 1.693-1.14 2.8 0 1.107.38 2.047 1.14 2.82Zm12.195-10.22a.925.925 0 0 1-.68.28.925.925 0 0 1-.68-.28.925.925 0 0 1-.28-.68c0-.267.093-.493.28-.68a.925.925 0 0 1 .68-.28c.267 0 .493.093.68.28.187.187.28.413.28.68a.925.925 0 0 1-.28.68Zm-1.34 12.4v-10h1.32v10h-1.32Zm12.721-10h1.32v9.6c0 1.44-.493 2.573-1.48 3.4-.986.827-2.166 1.24-3.54 1.24-2.346 0-3.926-.813-4.74-2.44l1.16-.66c.6 1.213 1.794 1.82 3.58 1.82 1.147 0 2.047-.307 2.7-.92.667-.6 1-1.413 1-2.44v-1.56c-.92 1.467-2.266 2.2-4.04 2.2-1.426 0-2.646-.507-3.66-1.52-1-1.013-1.5-2.253-1.5-3.72s.5-2.707 1.5-3.72c1.014-1.013 2.234-1.52 3.66-1.52 1.774 0 3.12.733 4.04 2.2V233Zm-6.74 7.82c.76.76 1.694 1.14 2.8 1.14 1.107 0 2.04-.38 2.8-1.14.76-.773 1.14-1.713 1.14-2.82 0-1.107-.38-2.04-1.14-2.8-.76-.773-1.693-1.16-2.8-1.16-1.106 0-2.04.387-2.8 1.16-.76.76-1.14 1.693-1.14 2.8 0 1.107.38 2.047 1.14 2.82Zm15.535-8.06c1.213 0 2.167.373 2.86 1.12.707.733 1.06 1.727 1.06 2.98V243h-1.32v-6.14c0-.893-.24-1.587-.72-2.08-.467-.493-1.133-.74-2-.74-.96 0-1.74.307-2.34.92-.6.6-.9 1.533-.9 2.8V243h-1.32v-10h1.32v1.56c.747-1.2 1.867-1.8 3.36-1.8Zm7.512 2.86c0 .453.2.813.6 1.08.4.267.887.473 1.46.62a27.65 27.65 0 0 1 1.72.5c.574.173 1.06.473 1.46.9.4.413.6.96.6 1.64 0 .853-.34 1.547-1.02 2.08-.666.533-1.533.8-2.6.8-.96 0-1.78-.213-2.46-.64-.666-.427-1.133-.98-1.4-1.66l1.12-.66c.187.52.52.933 1 1.24.494.293 1.074.44 1.74.44.654 0 1.2-.127 1.64-.38.44-.267.66-.673.66-1.22 0-.453-.2-.813-.6-1.08-.4-.267-.886-.473-1.46-.62a42.909 42.909 0 0 1-1.72-.48 3.515 3.515 0 0 1-1.46-.9c-.4-.427-.6-.98-.6-1.66 0-.813.32-1.493.96-2.04.654-.547 1.474-.82 2.46-.82.814 0 1.527.187 2.14.56.614.36 1.067.853 1.36 1.48l-1.1.64c-.386-.933-1.186-1.4-2.4-1.4-.573 0-1.066.14-1.48.42-.413.267-.62.653-.62 1.16Z"/><rect width="222.76" height="44" x="216.496" y="68.747" fill="#fff" fill-opacity=".8" rx="22" transform="rotate(-11 216.496 68.747)"/><g clip-path="url(#a)"><path fill="#E0E0E0" d="M257.92 75.07a13.968 13.968 0 0 0-8.943-4.038 13.986 13.986 0 0 0-9.399 2.833 13.87 13.87 0 0 0-5.191 8.299 13.823 13.823 0 0 0 1.591 9.647L234 99l7.391-1.93a13.979 13.979 0 0 0 6.662 1.689h.006c2.757 0 5.452-.814 7.744-2.339a13.9 13.9 0 0 0 5.135-6.227 13.827 13.827 0 0 0-3.018-15.125Zm-9.861 21.347h-.005c-2.075 0-4.112-.555-5.898-1.608l-.423-.25-4.386 1.145 1.171-4.256-.276-.436a11.493 11.493 0 0 1 1.398-14.061 11.604 11.604 0 0 1 6.64-3.471 11.633 11.633 0 0 1 7.385 1.304 11.555 11.555 0 0 1 5.035 5.534 11.487 11.487 0 0 1 .577 7.444 11.532 11.532 0 0 1-4.123 6.237 11.621 11.621 0 0 1-7.096 2.417h.001Z"/><path fill="url(#b)" d="m234.64 98.202 1.887-6.862a13.198 13.198 0 0 1 2.125-15.985 13.353 13.353 0 0 1 16.059-2.098 13.262 13.262 0 0 1 5.637 6.403 13.192 13.192 0 0 1 .558 8.496 13.243 13.243 0 0 1-4.752 7.078 13.34 13.34 0 0 1-8.098 2.738h-.006c-2.22 0-4.406-.555-6.356-1.612l-7.053 1.841-.001.001Z"/><path fill="#fff" fill-rule="evenodd" d="M244.614 78.984c-.258-.571-.53-.583-.775-.593-.201-.008-.431-.008-.66-.008a1.268 1.268 0 0 0-.918.43 3.842 3.842 0 0 0-1.206 2.858c0 1.687 1.234 3.317 1.406 3.545.172.23 2.383 3.8 5.883 5.175 2.908 1.142 3.5.915 4.132.858.631-.058 2.037-.83 2.324-1.63.287-.8.287-1.487.201-1.63-.086-.143-.316-.229-.66-.4-.345-.172-2.037-1.001-2.353-1.115-.316-.115-.546-.172-.775.171-.23.344-.889 1.115-1.09 1.345-.201.229-.402.257-.746.086a9.418 9.418 0 0 1-2.769-1.701A10.327 10.327 0 0 1 244.692 84c-.201-.343-.022-.529.151-.7.155-.154.345-.4.517-.6.141-.174.257-.366.344-.572a.626.626 0 0 0-.028-.6c-.087-.172-.756-1.867-1.062-2.545Z" clip-rule="evenodd"/><path fill="#fff" d="M257.807 75.025a13.825 13.825 0 0 0-18.135-1.195 13.71 13.71 0 0 0-5.132 8.205 13.67 13.67 0 0 0 1.576 9.538l-1.955 7.108 7.305-1.907a13.823 13.823 0 0 0 6.586 1.67h.006c2.725 0 5.39-.805 7.656-2.312a13.732 13.732 0 0 0 5.076-6.156 13.66 13.66 0 0 0 .786-7.926 13.704 13.704 0 0 0-3.769-7.025Zm-9.749 21.102h-.003c-2.052 0-4.065-.549-5.83-1.59l-.419-.246-4.336 1.131 1.157-4.207-.273-.432a11.37 11.37 0 0 1 1.383-13.9 11.498 11.498 0 0 1 13.864-2.141 11.42 11.42 0 0 1 4.978 5.47 11.356 11.356 0 0 1 .57 7.36 11.405 11.405 0 0 1-4.076 6.165 11.488 11.488 0 0 1-7.015 2.389v.001Z"/></g><path fill="#141414" d="m275.429 84.813-3.46.672-3.216-10.255 2.386-.463 2.453 8.141.147-.029 1.817-8.97 2.562-.499 2.336 8.164.147-.028 1.934-8.995 2.4-.466-2.512 11.368-3.445.67-1.918-7.191-.147.028-1.484 7.853Zm13.313-2.588-2.165.42-.357-11.268 2.15-.418.149 4.54.142-.058c.531-.96 1.205-1.503 2.089-1.675 1.708-.332 2.91.825 2.968 2.694l.162 4.766-2.164.42-.14-4.495c-.019-.96-.551-1.497-1.391-1.334-.898.174-1.614 1.047-1.585 2.065l.142 4.343Zm9.89-1.678c-2.12.412-3.601-.996-3.687-3.486-.09-2.427 1.276-4.358 3.323-4.756 1.163-.226 1.946.187 2.557.97l.156-.061-.032-1.186 2.15-.418.258 7.774-2.15.418-.043-1.168-.142.058c-.552 1.009-1.285 1.64-2.39 1.855Zm.464-2.016c1.163-.226 1.999-1.35 1.959-2.657-.031-1.262-.863-2.002-1.982-1.785-1.178.23-1.999 1.351-1.959 2.658.026 1.232.848 2.005 1.982 1.784Zm8.994.177c-1.516.295-2.538-.637-2.599-2.29l-.105-3.602-1.045.203-.059-1.639 1.105-.214.346-2.543 1.693-.33.066 2.463 1.693-.329.074 1.636-1.708.332.095 3.558c.02.653.395 1.008.984.893.221-.043.551-.153.787-.275l.115 1.613c-.425.25-1.029.444-1.442.524Zm6.094-1.153c-2.238.435-3.64-.409-3.683-2.203l1.896-.308c.022.821.667 1.23 1.698 1.03.839-.163 1.398-.669 1.372-1.275-.014-.7-.762-.616-1.651-.55-1.395.134-3.252.25-3.326-1.783-.062-1.577 1.212-2.803 3.186-3.186 2.017-.393 3.525.369 3.563 1.98l-1.97.323c-.025-.683-.606-.998-1.431-.838-.81.158-1.383.667-1.36 1.258.029.697.915.54 1.942.478 1.398-.119 3.104-.068 3.162 1.8.058 1.639-1.219 2.85-3.398 3.273Zm6.718-1.581-2.459.478 3.174-11.497 3.49-.679 3.834 10.135-2.444.475-.688-1.807-4.314.839-.593 2.056Zm2.476-9.192-1.422 5.182 3.269-.636-1.699-4.574-.148.028Zm10.988-1.494c2.091-.406 3.63.99 3.72 3.495.075 2.43-1.324 4.352-3.341 4.744-1.06.206-1.897-.09-2.441-.763l-.159.046.15 4.464-2.165.42-.371-11.266 2.164-.42.024.988.142-.058c.487-.874 1.246-1.45 2.277-1.65Zm-.432 2.025c-1.163.226-1.993 1.38-1.959 2.657.023 1.218.848 2.005 1.982 1.785 1.163-.226 2.005-1.398 1.959-2.658-.028-1.247-.863-2.002-1.982-1.784Zm9.922-3.87c2.091-.406 3.631.991 3.72 3.495.075 2.43-1.324 4.352-3.341 4.745-1.06.206-1.897-.09-2.44-.764l-.159.046.149 4.464-2.164.42-.372-11.266 2.165-.42.024.988.141-.058c.487-.874 1.246-1.45 2.277-1.65Zm-.431 2.025c-1.164.226-1.994 1.38-1.959 2.658.022 1.218.848 2.005 1.982 1.784 1.163-.226 2.005-1.398 1.958-2.657-.028-1.248-.862-2.002-1.981-1.785Zm11.051 3.98-1.34.26-.192-10.736 2.091-.406 3.539 8.144.147-.028 3.249-9.464 2.105-.41.192 10.736-1.325.258-.157-8.985-.133.026-3.317 9.66-1.267.246-3.6-8.3-.162.031.17 8.968Zm15.802-2.767c-2.252.438-3.901-1.044-3.946-3.48-.046-2.36 1.474-4.367 3.638-4.788 1.266-.246 2.179.203 2.848 1.051l.153-.075-.013-1.25 1.207-.236.135 7.691-1.208.235-.016-1.265-.109.067c-.642 1.102-1.511 1.821-2.689 2.05Zm-.023-1.141c1.605-.312 2.787-1.856 2.747-3.636-.011-1.71-1.153-2.71-2.699-2.41-1.62.316-2.79 1.842-2.762 3.64.023 1.691 1.153 2.71 2.714 2.406Zm7.506-.619-1.207.235-.15-7.688 1.178-.229.004 1.039.141-.058c.31-.764 1.093-1.374 1.888-1.529.368-.071.727-.034.941.047l.094 1.112a2.745 2.745 0 0 0-1.056-.008c-1.148.223-1.932 1.46-1.91 2.984l.077 4.095Zm5.738-1.115-1.222.238-.19-11.195 1.208-.235.113 6.794.132-.026 3.093-3.902 1.634-.318-3.577 4.394 3.771 3.286-1.59.309-3.294-2.951-.147.028.069 3.578Zm9.388-1.52c-2.327.453-4.069-1.042-4.114-3.555-.05-2.297 1.523-4.269 3.761-4.704 2.282-.443 3.981.984 4.021 3.39.005.106.01.289-.017.462l-6.523 1.268c.218 1.516 1.273 2.305 2.731 2.021a3.566 3.566 0 0 0 2.538-2.036l1.071.402c-.575 1.442-1.878 2.444-3.468 2.753Zm-2.86-4.257 5.224-1.107c-.216-1.348-1.236-2.036-2.591-1.773-1.398.272-2.452 1.454-2.633 2.88Zm10.931 2.674c-1.281.249-2.121-.536-2.143-1.907l-.081-4.66-1.192.232-.027-1.003 1.192-.232.226-2.535.957-.186.025 2.486 1.885-.366.027 1.003-1.885.367.086 4.69c-.007.75.406 1.143 1.068 1.014.266-.052.637-.185.914-.33l.077 1.024c-.33.186-.805.34-1.129.403Zm3.566-10.168c-.544.106-.946-.228-.951-.808-.018-.485.29-.866.776-.96.545-.107.946.228.963.79a.965.965 0 0 1-.788.978Zm.69 9.05-1.207.235-.135-7.69 1.207-.236.135 7.691Zm3.592-.698-1.207.234-.15-7.687 1.222-.238.006 1.053.139-.072c.488-.95 1.288-1.55 2.216-1.73 1.914-.372 3.178.864 3.206 2.815l.075 4.554-1.207.235-.075-4.63c-.025-1.31-.739-2.073-1.976-1.832-1.281.249-2.35 1.51-2.333 2.852l.084 4.446Zm11.297 1.624c-1.929.375-3.384-.35-3.905-1.854l1.18-.611c.414 1.111 1.333 1.59 2.599 1.343 1.664-.323 2.704-1.656 2.689-3.38l-.009-.991-.127.055c-.635.98-1.485 1.633-2.619 1.854-2.238.435-3.919-.98-3.956-3.372-.043-2.345 1.491-4.355 3.656-4.776 1.222-.237 2.152.147 2.784.88l.171-.063-.015-1.098 1.193-.232.132 7.6c.037 2.392-1.432 4.19-3.773 4.645Zm-.224-4.693c1.619-.315 2.792-1.827 2.746-3.56-.011-1.709-1.153-2.71-2.699-2.409-1.635.318-2.79 1.841-2.762 3.639.015 1.647 1.169 2.63 2.715 2.33Z"/><rect width="182.931" height="44" x="306.536" y="112" fill="#fff" fill-opacity=".8" rx="22" transform="rotate(2 306.536 112)"/><path fill="#222" d="M339.033 141.995h-16.065a3.188 3.188 0 0 1-2.253-.935 3.187 3.187 0 0 1-.935-2.252v-9.615a3.188 3.188 0 0 1 .935-2.253 3.188 3.188 0 0 1 2.253-.935h16.065a3.187 3.187 0 0 1 2.252.935c.598.597.934 1.407.935 2.253v9.615a3.187 3.187 0 0 1-.935 2.252 3.187 3.187 0 0 1-2.252.935Zm-16.065-14.865a2.063 2.063 0 0 0-2.063 2.063v9.615a2.061 2.061 0 0 0 2.063 2.062h16.065a2.061 2.061 0 0 0 2.062-2.062v-9.615a2.062 2.062 0 0 0-2.062-2.063h-16.065Z"/><path fill="#222" d="M331 136.28a3.195 3.195 0 0 1-1.924-.641l-8.756-6.623a.557.557 0 0 1-.233-.373.563.563 0 0 1 .912-.523l8.756 6.63a2.084 2.084 0 0 0 2.49 0l8.756-6.63a.558.558 0 0 1 .423-.123.56.56 0 0 1 .478.422.563.563 0 0 1-.222.597l-8.756 6.623a3.195 3.195 0 0 1-1.924.641Z"/><path fill="#222" d="M320.564 140.427a.562.562 0 0 1-.375-.982l6.9-6.154a.565.565 0 0 1 .795.045.566.566 0 0 1-.045.795l-6.9 6.154a.548.548 0 0 1-.375.142Zm20.872 0a.548.548 0 0 1-.375-.142l-6.9-6.154a.562.562 0 0 1 .343-.982.567.567 0 0 1 .407.142l6.896 6.154a.559.559 0 0 1 .152.621.562.562 0 0 1-.527.361h.004Z"/><path fill="#141414" d="m361.581 140.27-7.93-.277 2.082-10.614 7.78.272-.37 1.998-5.382-.188-.487 2.34 4.977.174-.331 1.744-4.977-.174-.523 2.534 5.531.193-.37 1.998Zm3.593.126-2.203-.077 1.497-7.633 2.189.077-.235 1.132.166-.024c.583-.805 1.471-1.299 2.415-1.266 1.02.035 1.853.68 2.077 1.558l.152-.04c.646-.878 1.564-1.371 2.643-1.333 1.694.059 2.652 1.413 2.288 3.261l-.93 4.696-2.189-.077.874-4.382c.167-.924-.229-1.599-1.053-1.642-.9-.032-1.644.648-1.842 1.601l-.857 4.323-2.203-.077.858-4.383c.199-.968-.184-1.612-.993-1.64-.885-.031-1.598.619-1.797 1.603l-.857 4.323Zm14.876.759c-2.159-.075-3.285-1.78-2.81-4.225.459-2.386 2.225-3.96 4.309-3.887 1.184.041 1.854.62 2.273 1.52l.166-.024.236-1.163 2.188.077-1.497 7.632-2.189-.076.221-1.148-.151.024c-.766.859-1.622 1.31-2.746 1.27Zm.905-1.859c1.184.041 2.252-.867 2.507-2.149.253-1.237-.391-2.145-1.53-2.185-1.199-.042-2.252.867-2.507 2.149-.252 1.207.376 2.144 1.53 2.185Zm8.573-6.8c-.78-.027-1.255-.614-1.107-1.405a1.473 1.473 0 0 1 1.513-1.193c.794.028 1.269.615 1.107 1.39a1.462 1.462 0 0 1-1.513 1.208Zm-.665 8.727-2.189-.077 1.497-7.632 2.189.076-1.497 7.633Zm3.936.137-2.204-.077 2.188-11.06 2.188.076-2.172 11.061Zm7.238.253-1.364-.048 2.228-10.503 2.129.074 1.616 8.732.15.005 5.295-8.49 2.143.075-2.228 10.503-1.349-.047 1.868-8.79-.135-.005-5.406 8.667-1.289-.045-1.64-8.898-.165-.006-1.853 8.776Zm16.021.86c-2.294-.08-3.566-1.896-3.063-4.28.486-2.309 2.418-3.923 4.622-3.846 1.289.045 2.077.688 2.539 1.665l.166-.039.268-1.222 1.229.043-1.598 7.524-1.23-.043.269-1.236-.122.04c-.873.93-1.881 1.436-3.08 1.394Zm.234-1.118c1.634.057 3.133-1.181 3.494-2.925.373-1.668-.514-2.899-2.088-2.954-1.649-.058-3.133 1.166-3.509 2.924-.358 1.654.514 2.9 2.103 2.955Zm7.453 1.086-1.23-.043 1.584-7.524 1.199.042-.23 1.012.151-.025c.474-.673 1.374-1.092 2.183-1.064.375.013.716.13.907.257l-.159 1.105a2.736 2.736 0 0 0-1.027-.246c-1.169-.041-2.211.988-2.533 2.478l-.845 4.008Zm5.841.204-1.244-.044 2.333-10.95 1.229.043-1.417 6.645.135.004 3.89-3.106 1.664.058-4.474 3.476 2.936 4.05-1.619-.056-2.546-3.616-.149-.005-.738 3.501Zm9.489.631c-2.369-.082-3.73-1.931-3.209-4.389.469-2.25 2.445-3.817 4.723-3.738 2.324.082 3.658 1.854 3.155 4.208a2.269 2.269 0 0 1-.12.446l-6.641-.232c-.129 1.527.722 2.532 2.206 2.584a3.566 3.566 0 0 0 2.931-1.414l.954.634c-.885 1.275-2.38 1.958-3.999 1.901Zm-1.829-4.791 5.34.096c.092-1.362-.747-2.262-2.126-2.31-1.424-.05-2.717.865-3.214 2.214Zm10.05 5.064c-1.304-.046-1.946-.999-1.659-2.34l.969-4.559-1.214-.042.199-.984 1.215.043.79-2.419.974.034-.535 2.428 1.919.067-.2.983-1.918-.067-.971 4.589c-.176.729.138 1.206.812 1.229.27.01.662-.037.965-.116l-.156 1.015c-.363.107-.86.15-1.19.139Zm5.762-9.105c-.555-.019-.87-.436-.746-1.002.092-.477.478-.778.973-.761.554.019.87.436.761.987a.966.966 0 0 1-.988.776Zm-1.364 8.973-1.229-.043 1.598-7.524 1.23.043-1.599 7.524Zm3.657.128-1.229-.043 1.584-7.525 1.244.044-.231 1.027.151-.039c.689-.817 1.604-1.22 2.548-1.187 1.949.068 2.903 1.557 2.491 3.464l-.951 4.454-1.229-.042.968-4.529c.27-1.282-.254-2.186-1.513-2.23-1.304-.045-2.629.944-2.915 2.255l-.918 4.351Zm10.642 4.124c-1.963-.069-3.218-1.103-3.388-2.685l1.287-.331c.154 1.177.941 1.849 2.231 1.894 1.694.06 3.007-1.005 3.381-2.688l.213-.968-.135.025c-.839.811-1.815 1.257-2.97 1.217-2.278-.08-3.598-1.837-3.096-4.176.485-2.294 2.433-3.907 4.637-3.83 1.244.043 2.064.627 2.514 1.484l.181-.024.233-1.073 1.214.043-1.58 7.434c-.502 2.339-2.338 3.761-4.722 3.678Zm.837-4.624c1.649.058 3.132-1.151 3.477-2.85.373-1.668-.514-2.9-2.088-2.955-1.664-.058-3.133 1.166-3.509 2.924-.357 1.609.546 2.826 2.12 2.881Z"/><defs><linearGradient id="b" x1="248" x2="248" y1="98.202" y2="71.481" gradientUnits="userSpaceOnUse"><stop stop-color="#20B038"/><stop offset="1" stop-color="#60D66A"/></linearGradient><clipPath id="a"><path fill="#fff" d="M234 71h28v28h-28z"/></clipPath></defs></svg>