<svg xmlns="http://www.w3.org/2000/svg" width="296" height="299" fill="none"><path fill="#ECE3D0" d="M0 38C0 17.013 17.013 0 38 0h220c20.987 0 38 17.013 38 38v223c0 20.987-17.013 38-38 38H38c-20.987 0-38-17.013-38-38V38Z"/><path fill="#141414" d="M167.951 135.4h9.86V176h-11.6v-28.478l-7.018 1.682-2.668-9.686 11.426-4.118Zm33.394 16.588c2.629.773 4.717 2.127 6.264 4.06 1.585 1.895 2.378 4.292 2.378 7.192 0 4.485-1.431 7.888-4.292 10.208-2.861 2.32-6.457 3.48-10.788 3.48-3.557 0-6.67-.812-9.338-2.436-2.668-1.624-4.582-4.021-5.742-7.192l10.208-5.858c.812 2.823 2.436 4.234 4.872 4.234 1.044 0 1.875-.271 2.494-.812.657-.541.986-1.276.986-2.204 0-1.933-1.16-2.9-3.48-2.9h-2.494l-4.524-6.728 5.452-6.38h-12.238V135.4h26.68v8.932l-6.438 7.656Zm19.351 4.524c-3.209 0-5.896-1.063-8.062-3.19-2.165-2.165-3.248-4.775-3.248-7.83 0-3.055 1.083-5.645 3.248-7.772 2.166-2.165 4.853-3.248 8.062-3.248 3.171 0 5.82 1.083 7.946 3.248 2.166 2.127 3.248 4.717 3.248 7.772 0 3.055-1.082 5.665-3.248 7.83-2.126 2.127-4.775 3.19-7.946 3.19Zm-3.944 13.05 27.26-28.884 4.234 2.436-27.318 28.826-4.176-2.378Zm1.856-21.982c.542.541 1.218.812 2.03.812.812 0 1.489-.29 2.03-.87.542-.58.812-1.257.812-2.03 0-.812-.27-1.489-.812-2.03-.541-.58-1.218-.87-2.03-.87-.812 0-1.488.29-2.03.87-.502.541-.754 1.218-.754 2.03 0 .812.252 1.508.754 2.088Zm26.448 29.348c-3.209 0-5.896-1.063-8.062-3.19-2.165-2.165-3.248-4.775-3.248-7.83 0-3.055 1.083-5.645 3.248-7.772 2.166-2.165 4.853-3.248 8.062-3.248 3.171 0 5.82 1.083 7.946 3.248 2.166 2.127 3.248 4.717 3.248 7.772 0 3.055-1.082 5.665-3.248 7.83-2.126 2.127-4.775 3.19-7.946 3.19Zm-2.088-8.932c.542.541 1.218.812 2.03.812.812 0 1.489-.29 2.03-.87.542-.58.812-1.257.812-2.03 0-.812-.27-1.489-.812-2.03-.541-.58-1.218-.87-2.03-.87-.812 0-1.488.29-2.03.87-.502.541-.754 1.218-.754 2.03 0 .812.252 1.508.754 2.088ZM62.67 207h1.32v10h-1.32v-1.56c-.746 1.2-1.866 1.8-3.36 1.8-1.213 0-2.173-.367-2.88-1.1-.693-.747-1.04-1.747-1.04-3V207h1.32v6.14c0 .893.234 1.587.7 2.08.48.493 1.154.74 2.02.74.96 0 1.74-.3 2.34-.9.6-.613.9-1.553.9-2.82V207Zm9.473-.24c1.427 0 2.64.507 3.64 1.52 1.013 1.013 1.52 2.253 1.52 3.72s-.507 2.707-1.52 3.72c-1 1.013-2.213 1.52-3.64 1.52-1.773 0-3.12-.733-4.04-2.2V221h-1.32v-14h1.32v1.96c.92-1.467 2.267-2.2 4.04-2.2Zm-2.9 8.06c.76.76 1.693 1.14 2.8 1.14 1.106 0 2.04-.38 2.8-1.14.76-.773 1.14-1.713 1.14-2.82 0-1.107-.38-2.04-1.14-2.8-.76-.773-1.694-1.16-2.8-1.16-1.107 0-2.04.387-2.8 1.16-.76.76-1.14 1.693-1.14 2.8 0 1.107.38 2.047 1.14 2.82ZM79.498 217v-14.6h1.32V217h-1.32Zm5.46-12.4a.925.925 0 0 1-.68.28.924.924 0 0 1-.68-.28.926.926 0 0 1-.28-.68c0-.267.094-.493.28-.68a.924.924 0 0 1 .68-.28c.267 0 .494.093.68.28.187.187.28.413.28.68a.926.926 0 0 1-.28.68Zm-1.34 12.4v-10h1.32v10h-1.32Zm9.122-12.96c-.974-.08-1.7.087-2.18.5-.467.413-.7 1.1-.7 2.06v.4h2.88v1.28h-2.88V217h-1.32v-8.72h-1.7V207h1.7v-.4c0-1.307.36-2.293 1.08-2.96.733-.68 1.773-.973 3.12-.88v1.28Zm7.097 4.24h-2.88v6.06c0 .547.106.94.32 1.18.213.227.533.347.96.36.426 0 .96-.013 1.6-.04V217c-1.4.213-2.454.113-3.16-.3-.694-.413-1.04-1.2-1.04-2.36v-6.06h-2.1V207h2.1v-2.4l1.32-.4v2.8h2.88v1.28Zm8.54-3.68a.926.926 0 0 1-.68.28.923.923 0 0 1-.68-.28.925.925 0 0 1-.28-.68c0-.267.093-.493.28-.68a.923.923 0 0 1 .68-.28c.266 0 .493.093.68.28.186.187.28.413.28.68a.928.928 0 0 1-.28.68Zm-1.34 12.4v-10h1.32v10h-1.32Zm8.801-10.24c1.213 0 2.166.373 2.86 1.12.706.733 1.06 1.727 1.06 2.98V217h-1.32v-6.14c0-.893-.24-1.587-.72-2.08-.467-.493-1.134-.74-2-.74-.96 0-1.74.307-2.34.92-.6.6-.9 1.533-.9 2.8V217h-1.32v-10h1.32v1.56c.746-1.2 1.866-1.8 3.36-1.8Zm16.832 0c1.427 0 2.64.507 3.64 1.52 1.013 1.013 1.52 2.253 1.52 3.72s-.507 2.707-1.52 3.72c-1 1.013-2.213 1.52-3.64 1.52-1.773 0-3.12-.733-4.04-2.2V217h-1.32v-14h1.32v5.96c.92-1.467 2.267-2.2 4.04-2.2Zm-2.9 8.06c.76.76 1.693 1.14 2.8 1.14 1.107 0 2.04-.38 2.8-1.14.76-.773 1.14-1.713 1.14-2.82 0-1.107-.38-2.04-1.14-2.8-.76-.773-1.693-1.16-2.8-1.16-1.107 0-2.04.387-2.8 1.16-.76.76-1.14 1.693-1.14 2.8 0 1.107.38 2.047 1.14 2.82Zm18.635.92c-1.013 1-2.253 1.5-3.72 1.5s-2.713-.5-3.74-1.5c-1.013-1.013-1.52-2.26-1.52-3.74 0-1.48.507-2.72 1.52-3.72 1.027-1.013 2.273-1.52 3.74-1.52s2.707.507 3.72 1.52c1.027 1 1.54 2.24 1.54 3.72s-.513 2.727-1.54 3.74Zm-6.52-.92c.76.76 1.693 1.14 2.8 1.14 1.107 0 2.04-.38 2.8-1.14.76-.773 1.14-1.713 1.14-2.82 0-1.107-.38-2.04-1.14-2.8-.76-.773-1.693-1.16-2.8-1.16-1.107 0-2.04.387-2.8 1.16-.76.76-1.14 1.693-1.14 2.8 0 1.107.38 2.047 1.14 2.82Zm18.649.92c-1.013 1-2.253 1.5-3.72 1.5s-2.713-.5-3.74-1.5c-1.013-1.013-1.52-2.26-1.52-3.74 0-1.48.507-2.72 1.52-3.72 1.027-1.013 2.273-1.52 3.74-1.52s2.707.507 3.72 1.52c1.027 1 1.54 2.24 1.54 3.72s-.513 2.727-1.54 3.74Zm-6.52-.92c.76.76 1.693 1.14 2.8 1.14 1.107 0 2.04-.38 2.8-1.14.76-.773 1.14-1.713 1.14-2.82 0-1.107-.38-2.04-1.14-2.8-.76-.773-1.693-1.16-2.8-1.16-1.107 0-2.04.387-2.8 1.16-.76.76-1.14 1.693-1.14 2.8 0 1.107.38 2.047 1.14 2.82Zm18.349 2.18h-1.76l-5-4.82V217h-1.32v-14h1.32v8.42l4.76-4.42h1.8l-5.16 4.8 5.36 5.2Zm3.143-12.4a.926.926 0 0 1-.68.28.923.923 0 0 1-.68-.28.925.925 0 0 1-.28-.68c0-.267.093-.493.28-.68a.923.923 0 0 1 .68-.28c.266 0 .493.093.68.28.186.187.28.413.28.68a.928.928 0 0 1-.28.68Zm-1.34 12.4v-10h1.32v10h-1.32Zm8.801-10.24c1.213 0 2.166.373 2.86 1.12.706.733 1.06 1.727 1.06 2.98V217h-1.32v-6.14c0-.893-.24-1.587-.72-2.08-.467-.493-1.134-.74-2-.74-.96 0-1.74.307-2.34.92-.6.6-.9 1.533-.9 2.8V217h-1.32v-10h1.32v1.56c.746-1.2 1.866-1.8 3.36-1.8Zm15.072.24h1.32v9.6c0 1.44-.493 2.573-1.48 3.4s-2.167 1.24-3.54 1.24c-2.347 0-3.927-.813-4.74-2.44l1.16-.66c.6 1.213 1.793 1.82 3.58 1.82 1.147 0 2.047-.307 2.7-.92.667-.6 1-1.413 1-2.44v-1.56c-.92 1.467-2.267 2.2-4.04 2.2-1.427 0-2.647-.507-3.66-1.52-1-1.013-1.5-2.253-1.5-3.72s.5-2.707 1.5-3.72c1.013-1.013 2.233-1.52 3.66-1.52 1.773 0 3.12.733 4.04 2.2V207Zm-6.74 7.82c.76.76 1.693 1.14 2.8 1.14 1.107 0 2.04-.38 2.8-1.14.76-.773 1.14-1.713 1.14-2.82 0-1.107-.38-2.04-1.14-2.8-.76-.773-1.693-1.16-2.8-1.16-1.107 0-2.04.387-2.8 1.16-.76.76-1.14 1.693-1.14 2.8 0 1.107.38 2.047 1.14 2.82Zm11.895-5.2c0 .453.2.813.6 1.08.4.267.887.473 1.46.62a27.85 27.85 0 0 1 1.72.5c.573.173 1.06.473 1.46.9.4.413.6.96.6 1.64 0 .853-.34 1.547-1.02 2.08-.667.533-1.533.8-2.6.8-.96 0-1.78-.213-2.46-.64-.667-.427-1.133-.98-1.4-1.66l1.12-.66c.187.52.52.933 1 1.24.493.293 1.073.44 1.74.44.653 0 1.2-.127 1.64-.38.44-.267.66-.673.66-1.22 0-.453-.2-.813-.6-1.08-.4-.267-.887-.473-1.46-.62a42.448 42.448 0 0 1-1.72-.48 3.515 3.515 0 0 1-1.46-.9c-.4-.427-.6-.98-.6-1.66 0-.813.32-1.493.96-2.04.653-.547 1.473-.82 2.46-.82.813 0 1.527.187 2.14.56.613.36 1.067.853 1.36 1.48l-1.1.64c-.387-.933-1.187-1.4-2.4-1.4-.573 0-1.067.14-1.48.42-.413.267-.62.653-.62 1.16Zm25.082-2.62h1.36l-3.08 10h-1.44l-2.58-8.06-2.58 8.06h-1.44l-3.08-10h1.36l2.46 8.3 2.62-8.3h1.32l2.62 8.3 2.46-8.3Zm4.691-2.4a.926.926 0 0 1-.68.28.923.923 0 0 1-.68-.28.925.925 0 0 1-.28-.68c0-.267.093-.493.28-.68a.923.923 0 0 1 .68-.28c.266 0 .493.093.68.28.186.187.28.413.28.68a.928.928 0 0 1-.28.68Zm-1.34 12.4v-10h1.32v10h-1.32Zm9.421-8.72h-2.88v6.06c0 .547.106.94.32 1.18.213.227.533.347.96.36.426 0 .96-.013 1.6-.04V217c-1.4.213-2.454.113-3.16-.3-.694-.413-1.04-1.2-1.04-2.36v-6.06h-2.1V207h2.1v-2.4l1.32-.4v2.8h2.88v1.28Zm6.88-1.52c1.213 0 2.166.373 2.86 1.12.706.733 1.06 1.727 1.06 2.98V217h-1.32v-6.14c0-.893-.24-1.587-.72-2.08-.467-.493-1.134-.74-2-.74-.96 0-1.74.307-2.34.92-.6.6-.9 1.533-.9 2.8V217h-1.32v-14h1.32v5.56c.746-1.2 1.866-1.8 3.36-1.8ZM73.362 232h2.58v10h-2.58v-1.18c-.773.973-1.86 1.46-3.26 1.46-1.333 0-2.48-.507-3.44-1.52-.947-1.027-1.42-2.28-1.42-3.76s.473-2.727 1.42-3.74c.96-1.027 2.107-1.54 3.44-1.54 1.4 0 2.487.487 3.26 1.46V232Zm-4.76 7.04c.52.52 1.18.78 1.98.78s1.46-.26 1.98-.78c.533-.533.8-1.213.8-2.04s-.267-1.5-.8-2.02c-.52-.533-1.18-.8-1.98-.8s-1.46.267-1.98.8c-.52.52-.78 1.193-.78 2.02s.26 1.507.78 2.04Zm15.5-7.32c1.346 0 2.493.513 3.44 1.54.96 1.013 1.44 2.26 1.44 3.74 0 1.48-.48 2.733-1.44 3.76-.947 1.013-2.094 1.52-3.44 1.52-1.4 0-2.48-.487-3.24-1.46V242h-2.58v-14h2.58v5.18c.76-.973 1.84-1.46 3.24-1.46Zm-2.46 7.32c.52.52 1.18.78 1.98.78s1.46-.26 1.98-.78c.533-.533.8-1.213.8-2.04s-.267-1.5-.8-2.02c-.52-.533-1.18-.8-1.98-.8s-1.46.267-1.98.8c-.52.52-.78 1.193-.78 2.02s.26 1.507.78 2.04Zm16.76-7.04h2.579v10h-2.58v-1.18c-.773.973-1.86 1.46-3.26 1.46-1.333 0-2.48-.507-3.44-1.52-.947-1.027-1.42-2.28-1.42-3.76s.473-2.727 1.42-3.74c.96-1.027 2.107-1.54 3.44-1.54 1.4 0 2.487.487 3.26 1.46V232Zm-4.76 7.04c.52.52 1.18.78 1.98.78s1.46-.26 1.98-.78c.532-.533.8-1.213.8-2.04s-.268-1.5-.8-2.02c-.52-.533-1.18-.8-1.98-.8s-1.46.267-1.98.8c-.52.52-.78 1.193-.78 2.02s.26 1.507.78 2.04Zm15.239-7.32c1.093 0 1.993.367 2.7 1.1.72.733 1.08 1.747 1.08 3.04V242h-2.58v-5.82c0-.667-.18-1.173-.54-1.52-.36-.36-.84-.54-1.44-.54-.667 0-1.2.207-1.6.62-.4.413-.6 1.033-.6 1.86v5.4h-2.58v-10h2.58v1.12c.626-.933 1.62-1.4 2.98-1.4Zm13.563-3.72h2.58v14h-2.58v-1.18c-.76.973-1.84 1.46-3.24 1.46-1.347 0-2.5-.507-3.46-1.52-.947-1.027-1.42-2.28-1.42-3.76s.473-2.727 1.42-3.74c.96-1.027 2.113-1.54 3.46-1.54 1.4 0 2.48.487 3.24 1.46V228Zm-4.76 11.04c.533.52 1.2.78 2 .78s1.46-.26 1.98-.78c.52-.533.78-1.213.78-2.04s-.26-1.5-.78-2.02c-.52-.533-1.18-.8-1.98-.8s-1.467.267-2 .8c-.52.52-.78 1.193-.78 2.02s.26 1.507.78 2.04Zm18.219 1.72c-1.027 1.013-2.28 1.52-3.76 1.52s-2.733-.507-3.76-1.52c-1.013-1.027-1.52-2.28-1.52-3.76s.507-2.727 1.52-3.74c1.027-1.027 2.28-1.54 3.76-1.54s2.733.513 3.76 1.54c1.027 1.013 1.54 2.26 1.54 3.74 0 1.48-.513 2.733-1.54 3.76Zm-5.7-1.78c.52.52 1.167.78 1.94.78.773 0 1.42-.26 1.94-.78s.78-1.18.78-1.98-.26-1.46-.78-1.98-1.167-.78-1.94-.78c-.773 0-1.42.26-1.94.78-.507.52-.76 1.18-.76 1.98s.253 1.46.76 1.98Zm14.615-7.26c1.093 0 1.993.367 2.7 1.1.72.733 1.08 1.747 1.08 3.04V242h-2.58v-5.82c0-.667-.18-1.173-.54-1.52-.36-.36-.84-.54-1.44-.54-.667 0-1.2.207-1.6.62-.4.413-.6 1.033-.6 1.86v5.4h-2.58v-10h2.58v1.12c.627-.933 1.62-1.4 2.98-1.4Zm15.743 10.56c-1.507 0-2.767-.507-3.78-1.52-1-1.013-1.5-2.267-1.5-3.76 0-1.493.5-2.747 1.5-3.76 1.013-1.013 2.273-1.52 3.78-1.52.973 0 1.86.233 2.66.7a4.652 4.652 0 0 1 1.82 1.88l-2.22 1.3c-.2-.413-.507-.74-.92-.98a2.59 2.59 0 0 0-1.36-.36c-.773 0-1.413.26-1.92.78-.507.507-.76 1.16-.76 1.96 0 .787.253 1.44.76 1.96.507.507 1.147.76 1.92.76.52 0 .98-.113 1.38-.34.413-.24.72-.567.92-.98l2.24 1.28a5.08 5.08 0 0 1-1.86 1.9c-.8.467-1.687.7-2.66.7ZM173.889 232h2.58v10h-2.58v-1.18c-.773.973-1.86 1.46-3.26 1.46-1.333 0-2.48-.507-3.44-1.52-.946-1.027-1.42-2.28-1.42-3.76s.474-2.727 1.42-3.74c.96-1.027 2.107-1.54 3.44-1.54 1.4 0 2.487.487 3.26 1.46V232Zm-4.76 7.04c.52.52 1.18.78 1.98.78s1.46-.26 1.98-.78c.534-.533.8-1.213.8-2.04s-.266-1.5-.8-2.02c-.52-.533-1.18-.8-1.98-.8s-1.46.267-1.98.8c-.52.52-.78 1.193-.78 2.02s.26 1.507.78 2.04Zm12.26-5.32c.24-.64.633-1.12 1.18-1.44.56-.32 1.18-.48 1.86-.48v2.88c-.787-.093-1.493.067-2.12.48-.613.413-.92 1.1-.92 2.06V242h-2.58v-10h2.58v1.72Zm10.542.76h-2.26v4.16c0 .347.087.6.26.76.174.16.427.253.76.28.334.013.747.007 1.24-.02V242c-1.773.2-3.026.033-3.76-.5-.72-.533-1.08-1.487-1.08-2.86v-4.16h-1.74V232h1.74v-2.02l2.58-.78v2.8h2.26v2.48Zm9.156 3.58c.346 1.253 1.286 1.88 2.82 1.88.986 0 1.733-.333 2.24-1l2.08 1.2c-.987 1.427-2.44 2.14-4.36 2.14-1.654 0-2.98-.5-3.98-1.5s-1.5-2.26-1.5-3.78c0-1.507.493-2.76 1.48-3.76.986-1.013 2.253-1.52 3.8-1.52 1.466 0 2.673.507 3.62 1.52.96 1.013 1.44 2.267 1.44 3.76 0 .333-.034.687-.1 1.06h-7.54Zm-.04-2h5.1c-.147-.68-.454-1.187-.92-1.52a2.57 2.57 0 0 0-1.56-.5c-.694 0-1.267.18-1.72.54-.454.347-.754.84-.9 1.48Zm20.541-4.34c1.146 0 2.06.373 2.74 1.12.693.747 1.04 1.747 1.04 3V242h-2.58v-5.98c0-.6-.147-1.067-.44-1.4-.294-.333-.707-.5-1.24-.5-.587 0-1.047.193-1.38.58-.32.387-.48.947-.48 1.68V242h-2.58v-5.98c0-.6-.147-1.067-.44-1.4-.294-.333-.707-.5-1.24-.5-.574 0-1.034.193-1.38.58-.334.387-.5.947-.5 1.68V242h-2.58v-10h2.58v1.06c.6-.893 1.526-1.34 2.78-1.34 1.226 0 2.133.48 2.72 1.44.666-.96 1.66-1.44 2.98-1.44Zm13.571.28h2.58v10h-2.58v-1.18c-.773.973-1.86 1.46-3.26 1.46-1.333 0-2.48-.507-3.44-1.52-.947-1.027-1.42-2.28-1.42-3.76s.473-2.727 1.42-3.74c.96-1.027 2.107-1.54 3.44-1.54 1.4 0 2.487.487 3.26 1.46V232Zm-4.76 7.04c.52.52 1.18.78 1.98.78s1.46-.26 1.98-.78c.533-.533.8-1.213.8-2.04s-.267-1.5-.8-2.02c-.52-.533-1.18-.8-1.98-.8s-1.46.267-1.98.8c-.52.52-.78 1.193-.78 2.02s.26 1.507.78 2.04Zm10.959-8.24a1.568 1.568 0 0 1-1.58-1.58c0-.427.154-.8.46-1.12.32-.32.694-.48 1.12-.48.44 0 .814.16 1.12.48.32.32.48.693.48 1.12 0 .427-.16.8-.48 1.12-.306.307-.68.46-1.12.46Zm-1.28 11.2v-10h2.58v10h-2.58Zm4.942 0v-14.6h2.58V242h-2.58Zm7.243-7.16c0 .267.173.487.52.66.36.16.793.307 1.3.44.507.12 1.013.28 1.52.48a2.82 2.82 0 0 1 1.28.96c.36.453.54 1.02.54 1.7 0 1.027-.387 1.82-1.16 2.38-.76.547-1.713.82-2.86.82-2.053 0-3.453-.793-4.2-2.38l2.24-1.26c.293.867.947 1.3 1.96 1.3.92 0 1.38-.287 1.38-.86 0-.267-.18-.48-.54-.64a6.7 6.7 0 0 0-1.28-.46 13.42 13.42 0 0 1-1.52-.5c-.507-.2-.94-.513-1.3-.94-.347-.44-.52-.987-.52-1.64 0-.987.36-1.76 1.08-2.32.733-.573 1.64-.86 2.72-.86a4.47 4.47 0 0 1 2.22.56c.667.36 1.193.88 1.58 1.56l-2.2 1.2c-.32-.68-.853-1.02-1.6-1.02-.333 0-.613.073-.84.22a.693.693 0 0 0-.32.6Z"/><g clip-path="url(#a)"><path fill="#C6A664" d="M35.813 46.625a1.812 1.812 0 0 0 0 3.625h4.023l1.454 5.825 5.43 28.946A1.813 1.813 0 0 0 48.5 86.5h3.625a7.25 7.25 0 1 0 0 14.5 7.25 7.25 0 0 0 0-14.5H77.5a7.25 7.25 0 1 0 0 14.5 7.25 7.25 0 0 0 0-14.5h3.625a1.812 1.812 0 0 0 1.78-1.479l5.437-29a1.814 1.814 0 0 0-1.78-2.146H44.477l-1.468-5.876a1.812 1.812 0 0 0-1.758-1.374h-5.438ZM55.75 93.75a3.625 3.625 0 1 1-7.25 0 3.625 3.625 0 0 1 7.25 0Zm25.375 0a3.625 3.625 0 1 1-7.25 0 3.625 3.625 0 0 1 7.25 0Zm-5.967-27.717L64.283 76.908a1.813 1.813 0 0 1-2.566 0l-5.438-5.437a1.816 1.816 0 0 1 2.567-2.567L63 73.062l9.592-9.595a1.814 1.814 0 1 1 2.566 2.566Z"/></g><defs><clipPath id="a"><path fill="#fff" d="M34 43h58v58H34z"/></clipPath></defs></svg>