<svg xmlns="http://www.w3.org/2000/svg" width="402" height="291" fill="none"><g clip-path="url(#a)"><path fill="#9BCF60" d="M0 38C0 17.013 17.013 0 38 0h326c20.987 0 38 17.013 38 38v215c0 20.987-17.013 38-38 38H38c-20.987 0-38-17.013-38-38V38Z"/><path fill="#000" fill-opacity=".1" d="M100 153c107.704 0 195-87.626 195-196s-87.296-195-195-195S-94-151.374-94-43s86.296 196 194 196Z"/><path fill="#000" fill-opacity=".1" d="M27.103 44.105c1.02-8.497 7.82-18.262 3.998-25.934C26.817 9.62 14.9 12.039 6.114 8.196-6.152 2.825-9.863-13.02-17.873-23.723c-7.18-9.566-24.224-18.841-36.98-15.96-9.248 2.085-12.042 6.23-12.994 12.968-.394-.068-.605-.93-1-.997-3.426-.366-7.118.819-8.995-1.995-2.189-3.275-.74-7.752-2.998-10.973-1.17-1.69-2.339-2.799-3.998-3.99-1.659-1.163-4.018-3.2-2.998-4.987.83-1.502 2.923-1.612 3.998-2.992.856-1.11.897-2.948 0-3.99-3.509-4.14-8.05 3.982-9.995 5.985-.558.582.503 1.589 0 1.995-.027.365 0 .632 0 .997-.04 1.15.027 1.829 0 2.993-.014 1.163 0 2.826 0 3.99 0 .947-.014 2.045 0 2.992.013.947-.027 1.048 0 1.995 2.094.703 3.053 1.856 4.997 2.992 3.794 2.179 7.751 4.62 7.996 8.977.027.704.578 1.413 1 1.995.394.555 1.319 1.846 1.999 1.995 3.236.771 6.676-.149 9.994 0 .068 3.897.068 8.1 0 11.97-.095 5.615-1.625 11.41-1 16.957.898 7.847 6.222 14.628 10.995 20.946 18.182 24.166 28.345 52.408 38.98 80.795 1.971 1.57 2.957 3.553 4.997 4.988 1.605 1.15 3.352 2.894 4.997 3.989 1.632 1.096 3.311.954 4.998 1.995 1.17.731 1.801 1.292 2.998 1.995-.15-.338.15.339 0 0-4.284-9.349-5.222-22.304 3.998-26.931 1.754-.893 3.542-1.64 4.997-2.993 4.094-3.87 1.89-12.103 5.997-15.96 2.312-2.15 5.127-2.704 7.996-3.989 5.14-2.354 6.405-8.322 5.997-13.964-.367-5.63-1.639-10.358-1-15.96ZM-82.839-99.53c3.631-3.099 10.192-2.859 12.993.997 2 2.76 1.517 6.606 1 9.975-.707 4.533-1.251 9.432-2 13.965-.217 1.353-.584 2.731 0 3.99 1.36 2.881 6.188 1.573 7.997-.998 1.85-2.611 1.489-5.852 1-8.977-.49-3.153-1.238-6.028 0-8.977 3.086-7.293 14.637-7.22 20.988-11.97 3.944-2.95 5.657-6.642 7.996-10.972 2.339-4.33 6.058-9.194 10.994-8.977a62.15 62.15 0 0 0 4.997 0c4.87-.149 6.453-6.538 2.999-9.975-.707-.731-1.496-1.102-1.999-1.995-.857-1.624.53-4.875 1.999-5.985 1.482-1.069 2.175-.727 3.998-.997 4.161-.677 8.832-1.346 12.993-1.995 4.597-.704 10.634-2.423 9.995-6.982-.558-3.951-5.195-6.051-5.997-9.975-.218-.947-.564-2.099-1-2.992-1.264-2.517-4.562-1.353-6.996 0-.993-3.654-7.07-6.385-9.995-3.99-2.461 2.029-2.141 5.933-2.998 8.977-2.04 7.36-7.377 12.772-12.993 17.954-1.877 1.719-4.44 3.868-6.997 3.99-2.556.122-5.167-1.757-3.997-3.99.802-1.529 3.215-3.269 2.998-4.987-.313-2.151-3.264-1.933-3.998-3.99 1.482-6.075 7.635-7.711 12.993-10.972 6.5-3.924 11.463-10.783 13.993-17.954.435-1.137.585-2.921 0-3.99-.803-1.529-2.244-1.995-3.998-1.995-4.134-.068-9.485 1.144-10.994 4.987-.803 2.057-.51 3.834-1 5.985-1.455 6.373-9.62 8.167-14.992 11.97-2.094 1.474-3.685 2.866-5.997 3.989-2.502 1.191-5.221.795-7.995.998-.49.027-2.51-.068-2.999 0-1.7 2.341-3.433 4.547-4.997 6.982-1.578 2.436-2.53 6.474-3.998 8.977-6.909 11.745-11.68 23.728-15.992 36.907-1.51 4.586-3.841 9.228-4.997 13.964-1.156 4.736-2.196 9.107-2.999 13.965 1.918-3.924 3.264-8.533 3.998-11.97 1.007-4.627 2.38-9.882 5.997-12.967Zm163.914-86.78c1.836-2.408.802-6.203 1.999-8.977 1.986-4.614 7.86-6.426 9.995-10.972.816-1.745.557-4.686 1.999-5.985 1.197-1.082 3.705-1.007 4.997-1.995 2.87-2.192 2.061-7.042-1-8.977-7.642-4.857-22.375 1.236-28.984 5.985-8.486 6.102-16.698 12.687-27.985 11.97-3.115-.203-6.085-1.096-8.996 0-2.91 1.095-5.514 6.139-2.998 7.979 1.4 1.029 4.42 1.278 5.997 1.995 2.91 1.34 2.414 5.125 1 7.98-1.415 2.855-3.325 5.26-4.998 7.98-1.632 2.638-3.27 5.892-2.999 8.977.19 2.138 1.313 3.648 2.999 4.987 3.508 2.787 9.015 1.361 11.993-1.995 2.979-3.355 5.147-7.688 8.996-9.974 1.93-1.151 3.82-2.479 5.997-2.993 4.909-1.163 10.096-2.84 14.992-3.99 2.339-.568 5.527-.087 6.996-1.995ZM294.963-44.67c-.014-2.787-.85-5.233-1-7.98-.149-2.746.272-6.243 0-8.976-.217-2.206-.686-3.807-.999-5.985-.299-2.3-.619-4.696-1-6.982-1.156-6.833-2.134-13.374-3.998-19.95-.72-2.53-2.182-5.49-2.998-7.979-.816-2.49-2.074-4.52-2.998-6.983v-.997c-.993-1.84-.871-3.215-1.999-4.988-10.812-17.048-27.08-30.576-38.98-46.88-3.889-5.304-7.125-9.931-13.993-10.973-10.172-1.569-14.767 4.606-21.988-4.987-1.945-2.571-6.126-4.521-8.995-2.992.734 2.056 1.264 2.903 1.999 4.987.149.433.068 1.535 0 1.995-.15 1.448-1.761 1.796-2.999.997-1.237-.825-2.141-2.799-2.998-3.989-3.21-4.574-11.089-3.965-14.992 0-.15-1.935-.218-4.189-1.999-4.988-.395 3.775-5.364 6.178-8.996 4.988-.584-1.868 2.829-1.396 3.998-2.993 1.075-1.502-.611-4.726-1.999-5.985-3.671-3.193-8.083-4.865-12.993-4.987-3.114-.068-6.289.599-8.995-.997-1.578-.92-3.393-2.1-4.997-2.993-3.427-1.935-7.554.101-10.995 1.995-4.719 2.611-9.335 5.844-10.994 10.972-1.7 5.088 2.638 11.622 7.996 10.972 1.36-.189 1.679-.365 2.998 0 1.918.528 2.849 2.028 2.999 3.99.149 1.935.034 5.264.999 6.983.925 1.718 4.923 2.621 5.997.997 2.53-2.395.639-6.579 0-9.975-.612-3.409-1.027-8.185 1-10.972 2.067-2.787 8.39-1.428 7.995 1.995-.244 2.03-2.094 2.931-1.999 4.987.096 2.084 1.904 4.085 3.998 3.99 2.095-.067 4.957-1.511 6.997-.997 2.067.487 2.481 3.485.999 4.987-2.557 2.882-8.675-2.588-9.995.998-.367.92.096 3.002 0 3.99-.244 3.003-3.977 3.624-6.996 3.989-3.019.339-6.262.302-8.995-.997-2.747-1.285-4.576-4.398-2.999-6.982-1.536-1.11-4.154.276-4.997 1.995-.83 1.691-.245 3.12 0 4.987-3.209-.704-6.173 2.322-7.996 4.987-1.849 2.693-2.882 5.038-5.997 5.985-3.141.947-7.349.165-8.995 2.992-2.121 3.681 3.162 9.314 1 12.967-1.238 2.057-4.658 1.346-6.997 1.995-6.188 1.746-7.214 11.143-2.998 15.96 4.188 4.817 12.517 4.587 16.991 0 3.114-3.153 3.753-8.168 5.997-11.97 2.244-3.775 6.737-7.216 10.994-5.985 1.659.488 2.679 1.883 3.998 2.993 2.067 1.718 4.943 3.242 6.996 4.987 1.319 1.11 2.122 2.285 1.999 3.99-.122 1.38-.537 2.705-.999 3.99-1.292 3.707 3.596 7.017 6.996 4.987 3.427-2.029 4.297-7.792 1.999-10.972-3.21-4.411-11.171-5.506-10.994-10.972 3.699-3.004 9.831-.272 11.993 3.99 2.163 4.235 2.176 9.581 3.998 13.964 1.823 4.411 6.751 8.137 10.995 5.985-1.116-3.802-1.897-8.208-2.999-11.969 2.706-2.03 5.759 3.98 8.995 2.992 1.972-.609 1.857-3.093 1-4.987-.83-1.895-2.618-3.928-2.999-5.985-.612-3.735 4.202-6.594 7.996-5.985 3.754.609 6.289 4.259 6.997 7.98.272 1.475.36 2.637.999 3.99 1.414 2.949 4.977 3.756 7.996 4.987 3.046 1.231 6.262 4.976 4.997 7.98-.585 1.312-1.489 2.637-.999 3.99.462 1.19 1.999.709 1.999 1.995-.028.852-1.197 1.656-1.999 1.994-2.04.826-4.025 2.046-5.997 2.993-1.972.92-3.148 2.836-2.999 4.987.245 3.072 3.271 4.439 4.998 6.983 1.659 2.421 1.951 5.219 2.998 7.98.993 2.543 2.366 4.803 3.998 6.981 5.114 6.928 6.507 15.727 8.995 23.94 1.116 3.707 3.175 8.273 6.997 8.977 2.094.365 4.025-.24 5.997-.998 5.521-2.178 11.143-4.525 14.992-8.977 3.889-4.478 4.984-12.573.999-16.957-.489-.582-1.264.081-1.999 0-1.047-.121-1.074-.433-1.999 0-2.801 1.286-6.656 1.06-8.995-.997-2.312-2.03-3.61-6.217-4.997-8.977-1.51-3.031-2.461-5.906-3.998-8.978 1.822-1.529 4.12-.504 5.997.998 1.849 1.502 2.488 4.144 3.998 5.985 4.596 5.696 12.686 8.11 19.989 8.977 1.85.216 4.27.226 5.997.997 5.453 2.49 6.241 10.252 11.994 11.97 1.604.487 3.487.28 4.997.997 2.285 1.07 3.332 4.56 3.998 6.983 1.265 4.505 2.094 8.664 3.998 12.967 1.876 4.289 6.316 6.914 10.994 6.982 2.924.068 4.861-.95 6.996-2.992.245-4.236 1-7.667 1-11.97.027-.893.068-2.1 0-2.992Zm-79.958 80.795c-2.897.569-2.421.841-3.998 2.993-2.054 2.787-5.133 6.244-6.996 8.977-3.169 4.654-.823 12.05-4.998 15.96-.843.798-2.237 1.115-2.998 1.994-1.673 1.935-1.041 5.44.999 6.983 2.04 1.542 5.779 2.296 7.996.997 2.203-1.299 3.236-4.547 3.998-6.982.557-1.76 1.598-3.783 2.998-4.988 2.38-2.07 5.854-.564 8.996-.997 13.354-1.854 6.705-27.426-5.997-24.937Z"/><path fill="#000" fill-opacity=".1" d="M219.987-.781c7.651-6.582 10.505-21.47.998-24.915-3.602-1.305-7.415-.62-10.976-1.993-4.659-1.79-7.288-7.275-8.981-11.959-4.415-12.275-8.558-24.598-12.972-36.873-2.668-7.39-7.141-15.852-14.968-16.942-4.429-.62-8.571 1.199-12.972 1.993-15.154 2.746-40.351-33.492-51.889-8.969-1.612-6.676-11.474-3.942-14.968 1.993-3.48 5.922-4.467 13.82-9.979 17.939-4.211 3.136-11.514 3.019-14.968 6.976-2.424 2.786-1.684 7.288-1.995 10.962-.583 7.012-1.414 13.916-1.996 20.928-.474 5.653-.821 12.016 1.996 16.942 2.816 4.94 9.758 6.812 13.97 2.99 1.936-1.764 3.405-3.894 4.989-5.98 2.56-3.365 6.887-5.076 10.977-3.986 3.44.902 6.556 3.382 8.98 5.98 19.731 21.117 27.074 50.923 27.94 79.726.163 5.276-.952 11.046.998 15.945 2.289 5.747 7.573 9.929 8.981 15.945 1.083 4.617.005 10.642 1.996 14.949 3.67 7.941 15.276 7.686 21.953 1.993 6.676-5.693 9.622-15.29 10.976-23.918 1.354-8.64 2.123-17.633 6.985-24.914 3.02-4.523 6.882-8.946 8.981-13.953 2.952-6.985.244-14.858 2.993-21.924 3.67-9.354 15.3-12.354 22.951-18.935Z"/><rect width="101.137" height="43.479" x="273" y="29" fill="#fff" fill-opacity=".91" rx="17.524"/><path fill="#141414" d="M316.385 44.224h2.268v13.233h-2.609V46.984l-2.495.7-.643-2.231 3.479-1.229Zm9.579 13.498c-1.651 0-2.949-.624-3.895-1.872-.932-1.26-1.399-2.93-1.399-5.01 0-2.079.467-3.742 1.399-4.99.946-1.26 2.244-1.89 3.895-1.89 1.663 0 2.961.63 3.894 1.89.932 1.248 1.399 2.911 1.399 4.99 0 2.08-.467 3.75-1.399 5.01-.933 1.248-2.231 1.872-3.894 1.872Zm-2.004-3.649c.453.731 1.121 1.097 2.004 1.097.882 0 1.55-.372 2.003-1.116.467-.743.7-1.815.7-3.213 0-1.412-.233-2.49-.7-3.233-.453-.744-1.121-1.115-2.003-1.115-.883 0-1.551.371-2.004 1.115-.454.744-.681 1.821-.681 3.233 0 1.411.227 2.489.681 3.232Zm13.911 3.649c-1.651 0-2.949-.624-3.894-1.872-.933-1.26-1.399-2.93-1.399-5.01 0-2.079.466-3.742 1.399-4.99.945-1.26 2.243-1.89 3.894-1.89 1.664 0 2.962.63 3.894 1.89.933 1.248 1.399 2.911 1.399 4.99 0 2.08-.466 3.75-1.399 5.01-.932 1.248-2.23 1.872-3.894 1.872Zm-2.004-3.649c.454.731 1.122 1.097 2.004 1.097.882 0 1.55-.372 2.004-1.116.466-.743.699-1.815.699-3.213 0-1.412-.233-2.49-.699-3.233-.454-.744-1.122-1.115-2.004-1.115-.882 0-1.55.371-2.004 1.115-.454.744-.68 1.821-.68 3.233 0 1.411.226 2.489.68 3.232Zm17.862-.321c0 1.109-.353 2.01-1.058 2.703-.706.68-1.626 1.09-2.76 1.229v1.663h-1.267v-1.644c-1.059-.076-1.966-.372-2.722-.889a4.284 4.284 0 0 1-1.626-2.098l2.25-1.304c.403 1.008 1.102 1.581 2.098 1.72v-3.27h-.019l-.038-.02c-.441-.163-.8-.308-1.077-.434a8.389 8.389 0 0 1-.983-.549 4.043 4.043 0 0 1-.87-.737 4.388 4.388 0 0 1-.548-1.002 3.746 3.746 0 0 1-.227-1.323c0-1.109.359-1.997 1.078-2.665.731-.668 1.625-1.053 2.684-1.154v-1.644h1.267v1.682c1.714.202 2.924 1.09 3.629 2.666l-2.193 1.285c-.302-.756-.781-1.216-1.436-1.38v3.157c1.172.467 1.959.838 2.363 1.115.97.694 1.455 1.658 1.455 2.893Zm-6.257-5.936c0 .277.088.523.265.737.176.202.479.41.907.624v-2.646c-.378.075-.668.226-.869.453a1.206 1.206 0 0 0-.303.832Zm2.439 7.278c.806-.176 1.21-.617 1.21-1.323 0-.315-.101-.58-.303-.794-.189-.214-.491-.416-.907-.605v2.722Z"/><g clip-path="url(#b)"><path fill="#359846" d="M282.374 53.637v3.075c0 1.275 1.013 2.175 2.25 2.175h18.75c1.238 0 2.25-.9 2.25-2.175v-3.075h-23.25Z"/><path fill="#EA8634" d="M303.374 43.137h-18.75c-1.237 0-2.25.9-2.25 2.175v3.075h23.25v-3.075c0-1.275-1.012-2.175-2.25-2.175Z"/><path fill="#FCFBF0" d="M282.374 48.387h23.25v5.25h-23.25v-5.25Z"/><path fill="#21872F" d="M303.299 58.887c1.238 0 2.325-.9 2.325-2.175v-3.075h-8.475l6.15 5.25Z"/><path fill="#E27423" d="M303.374 43.137h-18.75l6.225 5.25h14.775v-3.075c0-1.275-1.012-2.175-2.25-2.175Z"/><path fill="#F7F4E2" d="M297.187 53.637h8.437v-5.25h-14.812l6.375 5.25Z"/><path fill="#D86619" d="M303.374 43.137h-18.75l17.363 5.25h3.637v-3.075c0-1.275-1.012-2.175-2.25-2.175Z"/><path fill="#F2E9C2" d="M305.624 49.437v-1.05h-3.825l3.825 1.05Z"/><path fill="#167A20" d="M305.624 56.674c0 1.35-1.012 2.213-2.25 2.213h-18.75a2.233 2.233 0 0 1-2.25-2.25"/><path fill="#7D7DBC" d="M293.999 48.648a2.353 2.353 0 0 0-2.362 2.363 2.353 2.353 0 0 0 2.362 2.362 2.353 2.353 0 0 0 2.363-2.362 2.353 2.353 0 0 0-2.363-2.363Zm1.95 2.625c0 .038.038.113.075.113-.037.112-.037.225-.075.337-.037-.037-.112 0-.15.038-.037.037 0 .112.038.15-.038.112-.113.187-.15.3-.038-.038-.113-.038-.15.037a.113.113 0 0 0 0 .15l-.113.113-.825-.938-.337-.262.037-.038.338.263 1.087.562-.975-.75-.375-.15c0-.037 0-.037.038-.075l.375.15 1.2.263-1.163-.375-.412-.075v-.075l.412.037 1.238-.075-1.238-.075-.412.038v-.075l.412-.075 1.163-.375-1.2.262-.375.15c0-.037 0-.037-.038-.075l.375-.15 1.05-.675-1.087.563-.338.262-.037-.037.337-.263.825-.937.113.112a.113.113 0 0 0 0 .15c.037.038.112.038.15.038.075.075.112.187.15.3-.038.037-.075.075-.038.15.038.037.075.075.15.037.038.113.075.225.075.338-.037 0-.075.075-.075.112 0 .038.075.113.113.075v.3c-.15.038-.188.075-.188.15Zm-3.262-1.837c.037.037.112.037.15 0 .037-.038.037-.113.037-.15.075-.075.188-.113.3-.15.038.037.075.075.15.037.038-.037.075-.075.038-.15.112-.037.225-.075.337-.075 0 .038.075.075.113.075.037 0 .112-.075.075-.112h.3c0 .037.037.112.075.112.037 0 .112-.037.112-.075.113.038.225.038.338.075-.038.038 0 .113.037.15.038.038.113 0 .15-.037.113.037.188.112.3.15-.037.037-.037.112.038.15.037.037.112.037.15 0l.112.112-.937.825-.263.338-.037-.038.262-.337.563-1.088-.75 1.013-.15.375c-.038 0-.038 0-.075-.038l.15-.375.262-1.2-.375 1.163-.075.412h-.075l.038-.412-.038-1.238-.075 1.238.038.412h-.075l-.075-.412-.375-1.163.262 1.2.15.375c-.037 0-.037 0-.075.038l-.15-.375-.675-1.05.563 1.087.262.338-.037.037-.263-.337-.937-.825c.037 0 .075-.038.15-.075Zm-.15 3.037-.113-.112a.113.113 0 0 0 0-.15c-.037-.038-.112-.038-.15-.038-.075-.075-.112-.187-.15-.3.038-.037.075-.075.038-.15-.038-.037-.075-.075-.15-.037a1.08 1.08 0 0 1-.075-.338c.037 0 .075-.075.075-.112 0-.038-.075-.113-.113-.075v-.3c.038 0 .113-.038.113-.075 0-.038-.038-.113-.075-.113.037-.112.037-.225.075-.337.037.037.112 0 .15-.038.037-.037 0-.112-.038-.15.038-.112.113-.187.15-.3.038.038.113.038.15-.037.038-.075.038-.113 0-.15l.113-.113.825.938.337.262-.037.038-.338-.263-1.087-.562 1.05.675.375.15c0 .037 0 .037-.038.075l-.375-.15-1.2-.263 1.163.375.412.075v.075l-.412-.037-1.275.075 1.237.075.413-.038v.075l-.413.075-1.162.375 1.2-.262.375-.15c0 .037 0 .037.037.075l-.375.15-1.05.675 1.088-.563.337-.262.038.037-.338.263-.787.937Zm1.312.6c0-.037-.037-.112-.075-.112-.037 0-.112.037-.112.075-.113-.038-.225-.038-.338-.075.038-.038 0-.113-.037-.15-.038-.038-.113 0-.15.037-.113-.037-.188-.112-.3-.15.037-.037.037-.112-.038-.15-.037-.037-.112-.037-.15 0l-.112-.112.937-.825.263-.338.037.038-.262.337-.563 1.088.675-1.05.15-.375c.038 0 .038 0 .075.037l-.15.375-.262 1.2.375-1.162.075-.413h.075l-.038.413.075 1.237.075-1.237-.037-.413h.075l.075.413.375 1.162-.263-1.2-.15-.375c.038 0 .038 0 .075-.037l.15.375.675 1.05-.562-1.088-.263-.337.038-.038.262.338.938.825-.113.112c-.037-.037-.112-.037-.15 0-.037.038-.037.113-.037.15-.075.075-.188.113-.3.15-.038-.037-.075-.075-.15-.037-.075.037-.075.075-.038.15a1.092 1.092 0 0 1-.337.075c0-.038-.075-.075-.113-.075-.037 0-.112.075-.075.112h-.3Z"/><path fill="#6060B2" d="m294.524 51.46.113.113v-.037l-.113-.075Zm-.525-2.812c-.712 0-1.35.338-1.8.825l.225.188.113-.113.112-.112c.038.037.113.037.15 0 .038-.038.038-.113.038-.15.037-.038.112-.038.15-.075l.562 1.087.263.338-.038.037-.262-.337-.938-.825.788.9.112.075.225.187.638.525.037-.037.338.262 1.087.563c-.037.037-.037.112-.075.15-.037-.038-.112-.038-.15.037a.115.115 0 0 0 0 .15l.225.188a2.41 2.41 0 0 0 .563-1.538c0-1.275-1.05-2.325-2.363-2.325Zm-.187 1.988-.15-.375-.675-1.013c.037-.037.075-.075.15-.075.037.038.075.075.15.038.037-.038.075-.075.037-.15.038 0 .113-.038.15-.038l.263 1.2.15.375c-.038.038-.038.038-.075.038Zm.225-.038.037-.412-.075-1.238-.075 1.238.038.412h-.075l-.075-.412-.375-1.163c.037 0 .112-.037.15-.037 0 .037.075.075.112.075.038 0 .113-.075.075-.113h.3c0 .038.038.113.075.113.038 0 .113-.038.113-.075.037 0 .112.037.15.037l-.375 1.163-.075.412h.075Zm.075.038.15-.375.262-1.2c.038 0 .113.037.15.037-.037.038 0 .113.038.15.037.038.112 0 .15-.037.037.037.112.037.15.075l-.675.975-.15.375h-.075Zm1.687 1.125c-.037.037 0 .112.038.15-.038.037-.038.112-.075.15l-1.013-.713-.375-.15c0-.037 0-.037.038-.075l.375.15 1.2.263c0 .037-.038.112-.038.15-.075 0-.112.037-.15.075Zm.263-.9v.3c-.038 0-.113.037-.113.075 0 .037.038.112.075.112 0 .038-.037.113-.037.15l-1.163-.375-.412-.075v-.075l.412.038 1.238-.075-1.238-.075-.412.037v-.075l.412-.075 1.163-.375c0 .038.037.113.037.15-.037 0-.075.075-.075.113 0 .187.038.225.113.225Zm-.263-.6c.038.037.075.075.15.037 0 .038.038.113.038.15l-1.2.263-.375.15c0-.038 0-.038-.038-.075l.375-.15 1.013-.675c.037.037.075.075.075.15-.038.037-.075.112-.038.15Zm-.037-.263-1.088.563-.337.262-.038-.037.338-.263.825-.937-.938.825-.262.337-.038-.037.263-.338.562-1.087c.038.037.113.037.15.075-.037.037-.037.112.038.15.037.037.112.037.15 0l.112.112.113.113a.113.113 0 0 0 0 .15c.037.037.112.037.15.037-.038-.037 0 0 0 .075Z"/></g><path fill="#141414" d="M199.021 168h10.73v29h-10.73v-2.842c-1.778 2.436-4.369 3.654-7.772 3.654-3.17 0-5.722-1.083-7.656-3.248-1.894-2.204-2.842-5.471-2.842-9.802V168h10.73v15.602c0 2.591 1.199 3.886 3.596 3.886 1.276 0 2.243-.406 2.9-1.218.696-.812 1.044-1.933 1.044-3.364V168Zm32.144-.812c3.905 0 7.095 1.45 9.57 4.35 2.474 2.9 3.712 6.554 3.712 10.962 0 4.408-1.238 8.062-3.712 10.962-2.475 2.9-5.665 4.35-9.57 4.35-3.326 0-5.916-1.141-7.772-3.422v14.21h-10.73V168h10.73v2.61c1.856-2.281 4.446-3.422 7.772-3.422Zm-6.38 19.198c.966 1.044 2.223 1.566 3.77 1.566 1.546 0 2.784-.522 3.712-1.566.966-1.044 1.45-2.339 1.45-3.886 0-1.547-.484-2.842-1.45-3.886-.928-1.044-2.166-1.566-3.712-1.566-1.547 0-2.804.522-3.77 1.566-.928 1.044-1.392 2.339-1.392 3.886 0 1.547.464 2.842 1.392 3.886Zm39.885-8.178h-6.09v6.264c0 .967.232 1.682.696 2.146.464.464 1.141.735 2.03.812.928.039 2.049.019 3.364-.058V197c-6.071.851-10.401.329-12.992-1.566-2.552-1.895-3.828-5.355-3.828-10.382v-6.844h-4.06V168h4.06v-4.93l10.73-3.19V168h6.09v10.208Zm16.102 19.604c-4.33 0-8.023-1.469-11.078-4.408-3.016-2.939-4.524-6.573-4.524-10.904 0-4.331 1.508-7.965 4.524-10.904s6.709-4.408 11.078-4.408c4.37 0 8.062 1.469 11.078 4.408s4.524 6.573 4.524 10.904c0 4.331-1.508 7.965-4.524 10.904s-6.708 4.408-11.078 4.408Zm-3.538-11.6c.928.928 2.108 1.392 3.538 1.392 1.431 0 2.591-.464 3.48-1.392.928-.967 1.392-2.204 1.392-3.712s-.464-2.726-1.392-3.654c-.889-.967-2.049-1.45-3.48-1.45-1.43 0-2.61.483-3.538 1.45-.889.928-1.334 2.146-1.334 3.654s.445 2.745 1.334 3.712Zm61.388-5.568v10.44h-4.06V197h-11.368v-5.916h-17.052v-10.44l11.194-24.244h13.166l-11.368 24.244h4.06v-5.684h11.368v5.684h4.06ZM374.027 197h-12.876l-5.8-9.744-5.858 9.744h-12.876l12.296-20.532-12.006-20.068h12.876l5.568 9.28 5.51-9.28h12.876l-11.948 20.068L374.027 197ZM140.159 228h1.4l-4.28 10.92c-.387.987-.94 1.76-1.66 2.32-.707.573-1.5.827-2.38.76v-1.24c1.2.133 2.113-.56 2.74-2.08l.26-.62-4.48-10.06h1.4l3.76 8.38 3.24-8.38Zm10.984 8.74c-1.013 1-2.253 1.5-3.72 1.5-1.466 0-2.713-.5-3.74-1.5-1.013-1.013-1.52-2.26-1.52-3.74 0-1.48.507-2.72 1.52-3.72 1.027-1.013 2.274-1.52 3.74-1.52 1.467 0 2.707.507 3.72 1.52 1.027 1 1.54 2.24 1.54 3.72s-.513 2.727-1.54 3.74Zm-6.52-.92c.76.76 1.694 1.14 2.8 1.14 1.107 0 2.04-.38 2.8-1.14.76-.773 1.14-1.713 1.14-2.82 0-1.107-.38-2.04-1.14-2.8-.76-.773-1.693-1.16-2.8-1.16-1.106 0-2.04.387-2.8 1.16-.76.76-1.14 1.693-1.14 2.8 0 1.107.38 2.047 1.14 2.82Zm17.309-7.82h1.32v10h-1.32v-1.56c-.746 1.2-1.866 1.8-3.36 1.8-1.213 0-2.173-.367-2.88-1.1-.693-.747-1.04-1.747-1.04-3V228h1.32v6.14c0 .893.234 1.587.7 2.08.48.493 1.154.74 2.02.74.96 0 1.74-.3 2.34-.9.6-.613.9-1.553.9-2.82V228Zm5.433 1.66c.613-1.213 1.666-1.82 3.16-1.82v1.28c-.907 0-1.66.267-2.26.8-.6.533-.9 1.373-.9 2.52V238h-1.32v-10h1.32v1.66Zm14.589-1.9c1.48 0 2.673.527 3.58 1.58.92 1.04 1.38 2.273 1.38 3.7 0 .147-.014.353-.04.62h-8.78c.133 1.013.56 1.82 1.28 2.42.733.587 1.633.88 2.7.88.76 0 1.413-.153 1.96-.46.56-.32.98-.733 1.26-1.24l1.16.68a4.745 4.745 0 0 1-1.8 1.68c-.76.413-1.627.62-2.6.62-1.574 0-2.854-.493-3.84-1.48-.987-.987-1.48-2.24-1.48-3.76 0-1.493.486-2.74 1.46-3.74.973-1 2.226-1.5 3.76-1.5Zm0 1.28c-1.04 0-1.914.313-2.62.94-.694.613-1.107 1.413-1.24 2.4h7.46c-.134-1.053-.54-1.873-1.22-2.46a3.53 3.53 0 0 0-2.38-.88Zm15.659-1.04h1.32v10h-1.32v-1.96c-.92 1.467-2.266 2.2-4.04 2.2-1.426 0-2.646-.507-3.66-1.52-1-1.013-1.5-2.253-1.5-3.72s.5-2.707 1.5-3.72c1.014-1.013 2.234-1.52 3.66-1.52 1.774 0 3.12.733 4.04 2.2V228Zm-6.74 7.82c.76.76 1.694 1.14 2.8 1.14 1.107 0 2.04-.38 2.8-1.14.76-.773 1.14-1.713 1.14-2.82 0-1.107-.38-2.04-1.14-2.8-.76-.773-1.693-1.16-2.8-1.16-1.106 0-2.04.387-2.8 1.16-.76.76-1.14 1.693-1.14 2.8 0 1.107.38 2.047 1.14 2.82Zm12.175-6.16c.613-1.213 1.667-1.82 3.16-1.82v1.28c-.907 0-1.66.267-2.26.8-.6.533-.9 1.373-.9 2.52V238h-1.32v-10h1.32v1.66Zm9.649-1.9c1.214 0 2.167.373 2.86 1.12.707.733 1.06 1.727 1.06 2.98V238h-1.32v-6.14c0-.893-.24-1.587-.72-2.08-.466-.493-1.133-.74-2-.74-.96 0-1.74.307-2.34.92-.6.6-.9 1.533-.9 2.8V238h-1.32v-10h1.32v1.56c.747-1.2 1.867-1.8 3.36-1.8Zm7.813-2.16a.926.926 0 0 1-.68.28.923.923 0 0 1-.68-.28.925.925 0 0 1-.28-.68c0-.267.093-.493.28-.68a.923.923 0 0 1 .68-.28c.266 0 .493.093.68.28.186.187.28.413.28.68a.928.928 0 0 1-.28.68Zm-1.34 12.4v-10h1.32v10h-1.32Zm8.801-10.24c1.213 0 2.166.373 2.86 1.12.706.733 1.06 1.727 1.06 2.98V238h-1.32v-6.14c0-.893-.24-1.587-.72-2.08-.467-.493-1.134-.74-2-.74-.96 0-1.74.307-2.34.92-.6.6-.9 1.533-.9 2.8V238h-1.32v-10h1.32v1.56c.746-1.2 1.866-1.8 3.36-1.8Zm15.072.24h1.32v9.6c0 1.44-.493 2.573-1.48 3.4s-2.167 1.24-3.54 1.24c-2.347 0-3.927-.813-4.74-2.44l1.16-.66c.6 1.213 1.793 1.82 3.58 1.82 1.147 0 2.047-.307 2.7-.92.667-.6 1-1.413 1-2.44v-1.56c-.92 1.467-2.267 2.2-4.04 2.2-1.427 0-2.647-.507-3.66-1.52-1-1.013-1.5-2.253-1.5-3.72s.5-2.707 1.5-3.72c1.013-1.013 2.233-1.52 3.66-1.52 1.773 0 3.12.733 4.04 2.2V228Zm-6.74 7.82c.76.76 1.693 1.14 2.8 1.14 1.107 0 2.04-.38 2.8-1.14.76-.773 1.14-1.713 1.14-2.82 0-1.107-.38-2.04-1.14-2.8-.76-.773-1.693-1.16-2.8-1.16-1.107 0-2.04.387-2.8 1.16-.76.76-1.14 1.693-1.14 2.8 0 1.107.38 2.047 1.14 2.82Zm11.895-5.2c0 .453.2.813.6 1.08.4.267.886.473 1.46.62.573.147 1.146.313 1.72.5.573.173 1.06.473 1.46.9.4.413.6.96.6 1.64 0 .853-.34 1.547-1.02 2.08-.667.533-1.534.8-2.6.8-.96 0-1.78-.213-2.46-.64-.667-.427-1.134-.98-1.4-1.66l1.12-.66a2.4 2.4 0 0 0 1 1.24c.493.293 1.073.44 1.74.44.653 0 1.2-.127 1.64-.38.44-.267.66-.673.66-1.22 0-.453-.2-.813-.6-1.08-.4-.267-.887-.473-1.46-.62a41.998 41.998 0 0 1-1.72-.48 3.509 3.509 0 0 1-1.46-.9c-.4-.427-.6-.98-.6-1.66 0-.813.32-1.493.96-2.04.653-.547 1.473-.82 2.46-.82.813 0 1.526.187 2.14.56.613.36 1.066.853 1.36 1.48l-1.1.64c-.387-.933-1.187-1.4-2.4-1.4-.574 0-1.067.14-1.48.42-.414.267-.62.653-.62 1.16ZM273.28 228h1.36l-3.08 10h-1.44l-2.58-8.06-2.58 8.06h-1.44l-3.08-10h1.36l2.46 8.3 2.62-8.3h1.32l2.62 8.3 2.46-8.3Zm4.69-2.4a.923.923 0 0 1-.68.28.926.926 0 0 1-.68-.28.928.928 0 0 1-.28-.68c0-.267.094-.493.28-.68a.926.926 0 0 1 .68-.28c.267 0 .494.093.68.28.187.187.28.413.28.68a.925.925 0 0 1-.28.68Zm-1.34 12.4v-10h1.32v10h-1.32Zm9.422-8.72h-2.88v6.06c0 .547.106.94.32 1.18.213.227.533.347.96.36.426 0 .96-.013 1.6-.04V238c-1.4.213-2.454.113-3.16-.3-.694-.413-1.04-1.2-1.04-2.36v-6.06h-2.1V228h2.1v-2.4l1.32-.4v2.8h2.88v1.28Zm6.88-1.52c1.213 0 2.166.373 2.86 1.12.706.733 1.06 1.727 1.06 2.98V238h-1.32v-6.14c0-.893-.24-1.587-.72-2.08-.467-.493-1.134-.74-2-.74-.96 0-1.74.307-2.34.92-.6.6-.9 1.533-.9 2.8V238h-1.32v-14h1.32v5.56c.746-1.2 1.866-1.8 3.36-1.8Zm16.012 10.52c-1.507 0-2.767-.507-3.78-1.52-1-1.013-1.5-2.267-1.5-3.76 0-1.493.5-2.747 1.5-3.76 1.013-1.013 2.273-1.52 3.78-1.52.973 0 1.86.233 2.66.7a4.652 4.652 0 0 1 1.82 1.88l-2.22 1.3c-.2-.413-.507-.74-.92-.98a2.59 2.59 0 0 0-1.36-.36c-.773 0-1.413.26-1.92.78-.507.507-.76 1.16-.76 1.96 0 .787.253 1.44.76 1.96.507.507 1.147.76 1.92.76.52 0 .98-.113 1.38-.34.413-.24.72-.567.92-.98l2.24 1.28a5.08 5.08 0 0 1-1.86 1.9c-.8.467-1.687.7-2.66.7Zm14.248-1.52c-1.026 1.013-2.28 1.52-3.76 1.52s-2.733-.507-3.76-1.52c-1.013-1.027-1.52-2.28-1.52-3.76s.507-2.727 1.52-3.74c1.027-1.027 2.28-1.54 3.76-1.54s2.734.513 3.76 1.54c1.027 1.013 1.54 2.26 1.54 3.74 0 1.48-.513 2.733-1.54 3.76Zm-5.7-1.78c.52.52 1.167.78 1.94.78.774 0 1.42-.26 1.94-.78s.78-1.18.78-1.98-.26-1.46-.78-1.98-1.166-.78-1.94-.78c-.773 0-1.42.26-1.94.78-.506.52-.76 1.18-.76 1.98s.254 1.46.76 1.98Zm15.655-6.98h2.58v10h-2.58v-1.12c-.626.933-1.62 1.4-2.98 1.4-1.093 0-2-.367-2.72-1.1-.706-.733-1.06-1.747-1.06-3.04V228h2.58v5.82c0 .667.18 1.18.54 1.54.36.347.84.52 1.44.52.667 0 1.2-.207 1.6-.62.4-.413.6-1.033.6-1.86V228Zm10.503-.28c1.093 0 1.993.367 2.7 1.1.72.733 1.08 1.747 1.08 3.04V238h-2.58v-5.82c0-.667-.18-1.173-.54-1.52-.36-.36-.84-.54-1.44-.54-.667 0-1.2.207-1.6.62-.4.413-.6 1.033-.6 1.86v5.4h-2.58v-10h2.58v1.12c.627-.933 1.62-1.4 2.98-1.4Zm11.703 2.76h-2.26v4.16c0 .347.087.6.26.76.173.16.427.253.76.28.333.013.747.007 1.24-.02V238c-1.773.2-3.027.033-3.76-.5-.72-.533-1.08-1.487-1.08-2.86v-4.16h-1.74V228h1.74v-2.02l2.58-.78v2.8h2.26v2.48Zm4.555-.76c.24-.64.634-1.12 1.18-1.44.56-.32 1.18-.48 1.86-.48v2.88c-.786-.093-1.493.067-2.12.48-.613.413-.92 1.1-.92 2.06V238h-2.58v-10h2.58v1.72Zm11.284-1.72h2.76l-3.64 10c-.52 1.44-1.213 2.48-2.08 3.12-.853.653-1.92.947-3.2.88v-2.4c.694.013 1.24-.133 1.64-.44.414-.307.74-.8.98-1.48l-4.1-9.68h2.82l2.6 6.72 2.22-6.72Zm-117.516 24.72c1.346 0 2.493.513 3.44 1.54.96 1.013 1.44 2.26 1.44 3.74 0 1.48-.48 2.733-1.44 3.76-.947 1.013-2.094 1.52-3.44 1.52-1.4 0-2.48-.487-3.24-1.46V263h-2.58v-14h2.58v5.18c.76-.973 1.84-1.46 3.24-1.46Zm-2.46 7.32c.52.52 1.18.78 1.98.78s1.46-.26 1.98-.78c.533-.533.8-1.213.8-2.04s-.267-1.5-.8-2.02c-.52-.533-1.18-.8-1.98-.8s-1.46.267-1.98.8c-.52.52-.78 1.193-.78 2.02s.26 1.507.78 2.04Zm16.759-7.04h2.58v10h-2.58v-1.18c-.773.973-1.86 1.46-3.26 1.46-1.333 0-2.48-.507-3.44-1.52-.946-1.027-1.42-2.28-1.42-3.76s.474-2.727 1.42-3.74c.96-1.027 2.107-1.54 3.44-1.54 1.4 0 2.487.487 3.26 1.46V253Zm-4.76 7.04c.52.52 1.18.78 1.98.78s1.46-.26 1.98-.78c.534-.533.8-1.213.8-2.04s-.266-1.5-.8-2.02c-.52-.533-1.18-.8-1.98-.8s-1.46.267-1.98.8c-.52.52-.78 1.193-.78 2.02s.26 1.507.78 2.04Zm11.982-4.2c0 .267.173.487.52.66.36.16.793.307 1.3.44.506.12 1.013.28 1.52.48.506.187.933.507 1.28.96.36.453.54 1.02.54 1.7 0 1.027-.387 1.82-1.16 2.38-.76.547-1.714.82-2.86.82-2.054 0-3.454-.793-4.2-2.38l2.24-1.26c.293.867.946 1.3 1.96 1.3.92 0 1.38-.287 1.38-.86 0-.267-.18-.48-.54-.64a6.725 6.725 0 0 0-1.28-.46c-.507-.133-1.014-.3-1.52-.5-.507-.2-.94-.513-1.3-.94-.347-.44-.52-.987-.52-1.64 0-.987.36-1.76 1.08-2.32.733-.573 1.64-.86 2.72-.86a4.47 4.47 0 0 1 2.22.56c.666.36 1.193.88 1.58 1.56l-2.2 1.2c-.32-.68-.854-1.02-1.6-1.02-.334 0-.614.073-.84.22a.69.69 0 0 0-.32.6Zm8.862 3.22c.347 1.253 1.287 1.88 2.82 1.88.987 0 1.734-.333 2.24-1l2.08 1.2c-.986 1.427-2.44 2.14-4.36 2.14-1.653 0-2.98-.5-3.98-1.5s-1.5-2.26-1.5-3.78c0-1.507.494-2.76 1.48-3.76.987-1.013 2.254-1.52 3.8-1.52 1.467 0 2.674.507 3.62 1.52.96 1.013 1.44 2.267 1.44 3.76 0 .333-.033.687-.1 1.06h-7.54Zm-.04-2h5.1c-.146-.68-.453-1.187-.92-1.52a2.565 2.565 0 0 0-1.56-.5c-.693 0-1.266.18-1.72.54-.453.347-.753.84-.9 1.48Zm16.983-8.06h2.58v14h-2.58v-1.18c-.76.973-1.84 1.46-3.24 1.46-1.346 0-2.5-.507-3.46-1.52-.946-1.027-1.42-2.28-1.42-3.76s.474-2.727 1.42-3.74c.96-1.027 2.114-1.54 3.46-1.54 1.4 0 2.48.487 3.24 1.46V249Zm-4.76 11.04c.534.52 1.2.78 2 .78s1.46-.26 1.98-.78c.52-.533.78-1.213.78-2.04s-.26-1.5-.78-2.02c-.52-.533-1.18-.8-1.98-.8s-1.466.267-2 .8c-.52.52-.78 1.193-.78 2.02s.26 1.507.78 2.04Zm20.52-7.32c1.346 0 2.493.513 3.44 1.54.96 1.013 1.44 2.26 1.44 3.74 0 1.48-.48 2.733-1.44 3.76-.947 1.013-2.094 1.52-3.44 1.52-1.4 0-2.48-.487-3.24-1.46V267h-2.58v-14h2.58v1.18c.76-.973 1.84-1.46 3.24-1.46Zm-2.46 7.32c.52.52 1.18.78 1.98.78s1.46-.26 1.98-.78c.533-.533.8-1.213.8-2.04s-.267-1.5-.8-2.02c-.52-.533-1.18-.8-1.98-.8s-1.46.267-1.98.8c-.52.52-.78 1.193-.78 2.02s.26 1.507.78 2.04Zm11.739-5.32c.24-.64.634-1.12 1.18-1.44.56-.32 1.18-.48 1.86-.48v2.88c-.786-.093-1.493.067-2.12.48-.613.413-.92 1.1-.92 2.06V263h-2.58v-10h2.58v1.72Zm5.829-2.92c-.427 0-.8-.153-1.12-.46a1.566 1.566 0 0 1-.46-1.12c0-.427.153-.8.46-1.12.32-.32.693-.48 1.12-.48.44 0 .813.16 1.12.48.32.32.48.693.48 1.12 0 .427-.16.8-.48 1.12-.307.307-.68.46-1.12.46Zm-1.28 11.2v-10h2.58v10h-2.58Zm9.702.28c-1.507 0-2.767-.507-3.78-1.52-1-1.013-1.5-2.267-1.5-3.76 0-1.493.5-2.747 1.5-3.76 1.013-1.013 2.273-1.52 3.78-1.52.973 0 1.86.233 2.66.7a4.659 4.659 0 0 1 1.82 1.88l-2.22 1.3c-.2-.413-.507-.74-.92-.98-.4-.24-.854-.36-1.36-.36-.774 0-1.414.26-1.92.78-.507.507-.76 1.16-.76 1.96 0 .787.253 1.44.76 1.96.506.507 1.146.76 1.92.76.52 0 .98-.113 1.38-.34.413-.24.72-.567.92-.98l2.24 1.28a5.08 5.08 0 0 1-1.86 1.9c-.8.467-1.687.7-2.66.7Zm7.164-11.48c-.427 0-.8-.153-1.12-.46a1.566 1.566 0 0 1-.46-1.12c0-.427.153-.8.46-1.12.32-.32.693-.48 1.12-.48.44 0 .813.16 1.12.48.32.32.48.693.48 1.12 0 .427-.16.8-.48 1.12-.307.307-.68.46-1.12.46Zm-1.28 11.2v-10h2.58v10h-2.58Zm10.502-10.28c1.093 0 1.993.367 2.7 1.1.72.733 1.08 1.747 1.08 3.04V263h-2.58v-5.82c0-.667-.18-1.173-.54-1.52-.36-.36-.84-.54-1.44-.54-.667 0-1.2.207-1.6.62-.4.413-.6 1.033-.6 1.86v5.4h-2.58v-10h2.58v1.12c.626-.933 1.62-1.4 2.98-1.4Zm13.642.28h2.52v9.52c0 1.547-.513 2.727-1.54 3.54-1.013.813-2.24 1.22-3.68 1.22-1.08 0-2.033-.207-2.86-.62a4.347 4.347 0 0 1-1.88-1.82l2.2-1.26c.507.933 1.38 1.4 2.62 1.4.814 0 1.454-.213 1.92-.64.467-.427.7-1.033.7-1.82v-1.08c-.76 1.013-1.826 1.52-3.2 1.52-1.413 0-2.6-.493-3.56-1.48-.946-1-1.42-2.213-1.42-3.64 0-1.413.48-2.62 1.44-3.62s2.14-1.5 3.54-1.5c1.374 0 2.44.507 3.2 1.52V253Zm-4.82 6.82c.534.507 1.207.76 2.02.76.814 0 1.48-.253 2-.76.534-.52.8-1.18.8-1.98 0-.787-.266-1.433-.8-1.94-.52-.52-1.186-.78-2-.78-.813 0-1.486.26-2.02.78-.52.507-.78 1.153-.78 1.94 0 .8.26 1.46.78 1.98Z"/><rect width="97.356" height="43.479" x="131" y="85" fill="#fff" fill-opacity=".91" rx="17.524"/><path fill="#141414" d="M179.507 108.788v2.419h-1.417v2.25h-2.628v-2.25h-6.257v-2.419l4.404-8.564h2.798l-4.386 8.564h3.441v-3.138h2.628v3.138h1.417Zm6.221 4.934c-1.651 0-2.949-.624-3.894-1.872-.933-1.26-1.399-2.93-1.399-5.009 0-2.08.466-3.743 1.399-4.991.945-1.26 2.243-1.89 3.894-1.89 1.664 0 2.962.63 3.895 1.89.932 1.248 1.398 2.911 1.398 4.991 0 2.079-.466 3.749-1.398 5.009-.933 1.248-2.231 1.872-3.895 1.872Zm-2.004-3.649c.454.731 1.122 1.097 2.004 1.097.882 0 1.55-.372 2.004-1.116.466-.743.7-1.815.7-3.213 0-1.412-.234-2.489-.7-3.233-.454-.744-1.122-1.115-2.004-1.115-.882 0-1.55.371-2.004 1.115-.453.744-.68 1.821-.68 3.233 0 1.411.227 2.489.68 3.232Zm13.912 3.649c-1.651 0-2.949-.624-3.895-1.872-.932-1.26-1.399-2.93-1.399-5.009 0-2.08.467-3.743 1.399-4.991.946-1.26 2.244-1.89 3.895-1.89 1.663 0 2.961.63 3.894 1.89.932 1.248 1.399 2.911 1.399 4.991 0 2.079-.467 3.749-1.399 5.009-.933 1.248-2.231 1.872-3.894 1.872Zm-2.004-3.649c.454.731 1.121 1.097 2.004 1.097.882 0 1.55-.372 2.003-1.116.467-.743.7-1.815.7-3.213 0-1.412-.233-2.489-.7-3.233-.453-.744-1.121-1.115-2.003-1.115-.883 0-1.55.371-2.004 1.115-.454.744-.681 1.821-.681 3.233 0 1.411.227 2.489.681 3.232Zm17.862-.321c0 1.109-.353 2.01-1.059 2.703-.705.681-1.625 1.09-2.76 1.229v1.663h-1.266v-1.644c-1.059-.076-1.966-.372-2.722-.889a4.269 4.269 0 0 1-1.626-2.098l2.249-1.304c.404 1.008 1.103 1.581 2.099 1.72v-3.271h-.019l-.038-.018c-.441-.164-.8-.309-1.077-.435a8.257 8.257 0 0 1-.983-.549 4.007 4.007 0 0 1-.87-.737 4.324 4.324 0 0 1-.548-1.002 3.72 3.72 0 0 1-.227-1.323c0-1.109.359-1.998 1.077-2.665.731-.668 1.626-1.053 2.685-1.154v-1.644h1.266v1.682c1.714.202 2.924 1.09 3.63 2.666l-2.193 1.285c-.302-.756-.781-1.216-1.437-1.38v3.157c1.172.466 1.96.838 2.363 1.115.971.694 1.456 1.658 1.456 2.893Zm-6.257-5.936c0 .277.088.523.264.737.177.202.479.41.908.624v-2.647c-.378.076-.668.227-.87.454a1.21 1.21 0 0 0-.302.832Zm2.438 7.278c.807-.176 1.21-.618 1.21-1.323 0-.315-.101-.58-.302-.794-.189-.214-.492-.416-.908-.605v2.722Z"/><g clip-path="url(#c)"><path fill="#F0F5F9" d="M162.106 113.029h-19.692v-5.609l6.234-2.52 2.845-4.459h10.613v12.588Z"/><path fill="#D11536" d="M162.106 101.418h-11.557l.548-.65.395-.327h10.614v.977ZM162.106 102.441h-11.557v.977h11.557v-.977ZM162.106 104.441h-11.557v.977h11.557v-.977ZM162.106 106.445h-19.692v.977h19.692v-.977ZM162.106 108.449h-19.692v.977h19.692v-.977ZM162.106 110.449h-19.692v.977h19.692v-.977ZM162.106 112.449h-19.692v.977h19.692v-.977Z"/><path fill="#002868" d="M151.493 100.441h-9.079v6.979h9.079v-6.979Z"/><path fill="#F0F5F9" d="m143.355 101.012.14.283.311.044-.224.22.052.31-.279-.147-.278.147.054-.31-.225-.22.311-.044.138-.283ZM145.154 101.012l.14.283.311.044-.225.22.052.31-.278-.147-.279.147.054-.31-.226-.22.312-.044.139-.283ZM146.952 101.012l.14.283.311.044-.225.22.052.31-.278-.147-.279.147.054-.31-.226-.22.312-.044.139-.283ZM148.751 101.012l.14.283.311.044-.225.22.052.31-.278-.147-.278.147.053-.31-.224-.22.311-.044.138-.283ZM150.549 101.012l.14.283.311.044-.224.22.052.31-.279-.147-.278.147.054-.31-.226-.22.312-.044.138-.283ZM147.909 102.188l.138.281.313.046-.227.22.054.309-.278-.146-.279.146.053-.309-.225-.22.311-.046.14-.281ZM146.053 102.188l.139.281.312.046-.226.22.054.309-.279-.146-.278.146.054-.309-.226-.22.31-.046.14-.281ZM149.763 102.188l.14.281.31.046-.224.22.054.309-.28-.146-.277.146.052-.309-.225-.22.311-.046.139-.281ZM150.549 103.582l.14.283.311.045-.224.22.052.309-.279-.146-.278.146.054-.309-.226-.22.312-.045.138-.283ZM149.763 104.758l.14.283.31.045-.224.22.054.309-.28-.146-.277.146.052-.309-.225-.22.311-.045.139-.283ZM150.549 106.148l.14.284.311.044-.224.22.052.309-.279-.146-.278.146.054-.309-.226-.22.312-.044.138-.284ZM144.198 102.188l.14.281.311.046-.227.22.054.309-.278-.146-.279.146.054-.309-.226-.22.312-.046.139-.281ZM143.355 103.555l.14.283.311.044-.224.22.052.31-.279-.147-.278.147.054-.31-.225-.22.311-.044.138-.283ZM145.154 103.555l.14.283.311.044-.225.22.052.31-.278-.147-.279.147.054-.31-.226-.22.312-.044.139-.283ZM146.952 103.555l.14.283.311.044-.225.22.052.31-.278-.147-.279.147.054-.31-.226-.22.312-.044.139-.283ZM148.751 103.555l.14.283.311.044-.225.22.052.31-.278-.147-.278.147.053-.31-.224-.22.311-.044.138-.283ZM147.909 104.73l.138.284.313.044-.227.22.054.309-.278-.146-.279.146.053-.309-.225-.22.311-.044.14-.284ZM146.053 104.73l.139.284.312.044-.226.22.054.309-.279-.146-.278.146.054-.309-.226-.22.31-.044.14-.284ZM144.198 104.73l.14.284.311.044-.227.22.054.309-.278-.146-.279.146.054-.309-.226-.22.312-.044.139-.284ZM143.355 106.094l.14.281.311.045-.224.22.052.311-.279-.146-.278.146.054-.311-.225-.22.311-.045.138-.281ZM145.154 106.094l.14.281.311.045-.225.22.052.311-.278-.146-.279.146.054-.311-.226-.22.312-.045.139-.281ZM146.952 106.094l.14.281.311.045-.225.22.052.311-.278-.146-.279.146.054-.311-.226-.22.312-.045.139-.281ZM148.751 106.094l.14.281.311.045-.225.22.052.311-.278-.146-.278.146.053-.311-.224-.22.311-.045.138-.281Z"/></g></g><defs><clipPath id="a"><path fill="#fff" d="M0 38C0 17.013 17.013 0 38 0h326c20.987 0 38 17.013 38 38v215c0 20.987-17.013 38-38 38H38c-20.987 0-38-17.013-38-38V38Z"/></clipPath><clipPath id="b"><path fill="#fff" d="M281.999 39.012h24v24h-24z"/></clipPath><clipPath id="c"><path fill="#fff" d="M142.26 96.934h20v20h-20z"/></clipPath></defs></svg>